<?xml version="1.0" encoding="UTF-8"?> <!-- Generator: Adobe Illustrator 19.2.1, SVG Export Plug-In . SVG Version: 6.00 Build 0) --> <svg xmlns="http://www.w3.org/2000/svg" xmlns:xlink="http://www.w3.org/1999/xlink" id="Layer_1" x="0px" y="0px" width="512px" height="512px" viewBox="0 0 512 512" style="enable-background:new 0 0 512 512;" xml:space="preserve"> <style type="text/css"> .st0{fill:#1B1A1B;} .st1{fill:#FFFFFF;} .st2{fill:#B92025;} </style> <g> <g> <path class="st0" d="M506.1,245.5c-0.4-10.3-1.5-20.5-3.1-30.6C491.7,144.4,448.2,80,387.3,42.8c-49.8-31.1-110.9-43.6-169-34.5 C169.4,15.6,123,38.1,86.5,71.5C46,108.7,18.1,159.4,8.9,213.6c-3.6,21.3-4.5,43-2.7,64.6c1.7,14.6,3.9,29.2,7.8,43.3 c14,51.7,45.1,98.6,87.3,131.5c41,32.4,92.5,51.3,144.7,53.3c51,2,102.6-11.9,145.4-39.9c21-13.5,39.9-30.2,56-49.3 c33.7-39.6,54.1-89.9,58.3-141.7C506,265.5,507.4,255.5,506.1,245.5z"></path> </g> <g> <g> <g> <path class="st0" d="M131.4,210.9c-8.4-0.3-17.6-1.4-24.8,3.7c-8.3,4.9-12.4,14.4-13,23.7c-1.9,32.2-4.4,64.3-6.6,96.5 c0.4,9,4.9,18,12.6,22.8c8.8,5.7,19.8,4.7,29.8,5.3c0.3-1.5,0.5-3.1,0.7-4.6c3.1-48.9,7.1-97.8,10-146.8 C137.2,211.5,134.3,211.6,131.4,210.9z"></path> </g> <g> <path class="st1" d="M129.4,364.3C129.4,364.3,129.4,364.3,129.4,364.3c-2-0.1-4-0.2-6-0.2c-8.4-0.2-17.1-0.4-24.5-5.3 c-7.7-4.8-12.8-13.9-13.2-23.9c0.6-8.4,1.2-16.7,1.8-25c1.7-23.5,3.4-47.8,4.9-71.6c0.6-10.9,5.7-20.1,13.6-24.8 c6.8-4.9,15.4-4.4,23-4.1l2.6,0.1c0.1,0,0.2,0,0.3,0c2.3,0.5,4.6,0.5,7.1,0.5l1.3,0c0.4,0,0.7,0.2,1,0.4c0.3,0.3,0.4,0.6,0.4,1 c-1.6,28-3.7,56.4-5.6,83.9c-1.5,21-3,41.9-4.3,62.9c-0.2,1.6-0.4,3.2-0.7,4.8C130.7,363.8,130.1,364.3,129.4,364.3z M122.4,212 c-5.4,0-10.6,0.7-15,3.8c-7.2,4.3-11.8,12.8-12.4,22.7c-1.4,23.9-3.2,48.2-4.9,71.7c-0.6,8.3-1.2,16.5-1.8,24.8 c0.4,8.9,5,17.2,12,21.5c6.8,4.4,15.1,4.6,23.1,4.8c1.6,0,3.2,0.1,4.8,0.2c0.2-1.1,0.3-2.2,0.5-3.4c1.3-20.9,2.8-41.9,4.3-62.9 c1.9-27,3.9-54.9,5.5-82.4c-2.4,0-4.9,0-7.4-0.6l-2.5-0.1C126.6,212.1,124.5,212,122.4,212z"></path> </g> </g> <g> <g> <path class="st0" d="M417.8,234.7c-1-9.3-7-17.9-15.6-21.7c-9.6-4.7-20.6-1.1-30.7-1.6c1.4,13.9,1.9,27.9,3.1,41.8 c2.3,36.6,5.5,73.1,7.4,109.6c9.9-0.3,20.6,0.5,29.5-4.6c7.5-4.7,13.3-13.1,13.1-22.2c0.1-12.3-1.7-24.5-2.1-36.7 C420.8,277.8,419.5,256.2,417.8,234.7z"></path> </g> <g> <path class="st1" d="M381.9,364.2c-0.7,0-1.3-0.6-1.4-1.3c-1.1-21.3-2.7-43-4.2-63.9c-1.1-15-2.2-30.5-3.2-45.7 c-0.5-6.1-0.9-12.3-1.3-18.4c-0.5-7.7-1-15.6-1.8-23.3c0-0.4,0.1-0.8,0.4-1.1c0.3-0.3,0.7-0.5,1.1-0.4c3.2,0.1,6.7-0.1,10-0.4 c7.1-0.6,14.5-1.2,21.3,2.1c8.9,3.9,15.4,12.9,16.4,22.8c0,0,0,0,0,0c0.8,10,1.5,20,2.1,30.1c0.8,11.5,1.6,23,2.5,34.5 c0.2,5.1,0.6,10.3,1,15.3c0.6,7.1,1.2,14.3,1.1,21.6c0.2,8.8-5.2,18-13.7,23.4c-7.8,4.5-16.7,4.6-25.3,4.7 C385.3,364.1,383.6,364.2,381.9,364.2C382,364.2,382,364.2,381.9,364.2z M373,212.9c0.7,7.3,1.2,14.7,1.7,21.8 c0.4,6.1,0.8,12.3,1.3,18.4c0.9,15.3,2.1,30.8,3.2,45.7c1.5,20.5,3,41.7,4.1,62.6c1.2,0,2.4,0,3.6-0.1 c8.2-0.1,16.8-0.3,23.9-4.3c7.7-4.8,12.6-13.1,12.4-21c0.1-7.1-0.5-14.4-1.1-21.4c-0.4-5-0.8-10.2-1-15.4 c-0.9-11.4-1.7-23-2.5-34.5c-0.7-10-1.4-20-2.1-30c-0.9-8.9-6.7-17-14.8-20.6c-6.2-3-12.8-2.5-19.9-1.9 C378.9,212.6,375.9,212.9,373,212.9z"></path> </g> </g> <g> <g> <path class="st0" d="M364.1,230.7c-0.8-12.6-6.6-24.9-16.1-33.3c-8.9-8.5-21.2-12.4-33.2-13c-19.7,41.4-39.1,82.9-58.8,124.4 c-19.6-41.4-39.3-82.7-58.5-124.3c-7.7,0.5-15.5,1.7-22.3,5.4c-14.7,6.9-25.3,21.9-27,38.1c-1.7,20.1-2.9,40.2-4.7,60.3 c-1.2,18.1-2.6,36.2-4.1,54.2c0,12.2,4.4,24.7,13.2,33.3c8.4,9,20.8,13.9,33.1,14c0.2-1.6,0.4-3.2,0.7-4.8 c0.7-16.2,1.4-32.4,2.6-48.5c0.4-20.3,2.5-40.5,2.8-60.8c12.8,27.2,26.5,54.1,39.3,81.3c16.5,0,33,0,49.5,0 c12.8-26.6,26.2-53,38.6-79.8c2.1,5.4,0.6,11.2,1.6,16.7c1.3,32,3.9,63.9,4.7,95.9c17.3,0.4,34.6-9.7,42-25.5 c8-15.1,3.6-32.6,2.8-48.7C368.4,287.2,366,259,364.1,230.7z"></path> </g> <g> <path class="st1" d="M185.7,391.2C185.7,391.2,185.7,391.2,185.7,391.2c-13.2-0.1-25.7-5.4-34.1-14.4 c-8.7-8.5-13.6-21-13.6-34.3c1.6-18.6,2.9-36.9,4.1-54.3c1-10.8,1.8-21.9,2.5-32.5c0.7-9.3,1.4-18.6,2.1-27.8 c1.8-16.8,12.7-32.1,27.8-39.2c7.6-4.1,16.2-5.1,22.8-5.5c0.7-0.1,1.1,0.3,1.3,0.8c14.6,31.6,29.8,63.7,44.5,94.7 c4.3,9,8.5,18,12.8,27c9-18.9,17.9-37.8,26.8-56.8c10.2-21.7,20.4-43.3,30.7-65c0.2-0.5,0.7-0.9,1.3-0.8 c9.7,0.5,23.5,3.3,34.1,13.4c9.6,8.6,15.7,21,16.5,34.2c0.9,12.4,1.8,24.7,2.8,37.1c1.2,15.9,2.4,31.8,3.5,47.7 c0.2,3.5,0.5,7.2,0.9,10.7c1.3,13.1,2.6,26.6-3.8,38.7c-7.4,15.8-24.3,26.3-42.3,26.3c-0.3,0-0.6,0-0.9,0 c-0.7,0-1.3-0.6-1.4-1.3c-0.5-18.4-1.6-37.2-2.6-55.3c-0.8-13.3-1.6-27-2.1-40.6c-0.4-2.2-0.4-4.7-0.4-7.1c0-1.9,0-3.7-0.2-5.5 c-7.3,15.8-15.1,31.6-22.6,46.9c-4.8,9.8-9.6,19.5-14.3,29.3c-0.2,0.5-0.7,0.8-1.2,0.8l0,0h-19.8c-9.9,0-19.8,0-29.7,0 c-0.5,0-1-0.3-1.2-0.8c-6.4-13.5-13-27.1-19.5-40.3c-5.7-11.7-11.6-23.7-17.3-35.7c-0.2,8.9-0.8,17.8-1.3,26.4 c-0.6,9.3-1.1,19-1.4,28.5c-1.2,15.6-1.9,31.2-2.6,48.5c-0.3,1.8-0.6,3.3-0.7,4.9C187,390.7,186.4,391.2,185.7,391.2z M319.2,275.8C319.2,275.8,319.2,275.8,319.2,275.8c0.6,0,1.1,0.4,1.3,0.9c1.3,3.4,1.3,6.8,1.3,10.2c0,2.4,0,4.6,0.4,6.8 c0.6,13.7,1.4,27.5,2.1,40.7c1,17.7,2.1,36,2.6,54c16.5-0.2,32.6-10.2,39.4-24.8c6-11.5,4.8-24.6,3.5-37.2 c-0.4-3.6-0.7-7.3-0.9-10.8c-1.1-15.9-2.3-31.8-3.5-47.6c-0.9-12.4-1.9-24.7-2.8-37.1c0,0,0,0,0,0c-0.8-12.4-6.5-24.2-15.6-32.3 c-9.7-9.2-22.3-12-31.5-12.6c-10.1,21.3-20.2,42.7-30.3,64.1c-9.3,19.8-18.7,39.6-28.1,59.4c-0.2,0.5-0.7,0.8-1.2,0.8l0,0 c-0.5,0-1-0.3-1.2-0.8c-4.7-9.9-9.4-19.8-14-29.6c-14.6-30.7-29.6-62.5-44.1-93.8c-8.9,0.7-15.3,2.3-20.8,5.2 c-14.3,6.7-24.6,21.2-26.3,37c-0.8,9.2-1.5,18.5-2.1,27.8c-0.8,10.7-1.6,21.7-2.5,32.5c-1.1,17.4-2.5,35.7-4.1,54.2 c0,12.4,4.6,24.2,12.8,32.2c7.6,8.1,19.1,13.1,30.9,13.6c0.2-1.2,0.4-2.5,0.6-3.7c0.7-17.2,1.4-32.8,2.6-48.3 c0.2-9.5,0.8-19.2,1.4-28.6c0.6-10.5,1.3-21.4,1.4-32.2c0-0.6,0.5-1.2,1.1-1.3c0.6-0.1,1.3,0.2,1.5,0.8 c6.5,13.7,13.2,27.5,19.8,40.9c6.3,12.9,12.9,26.3,19.1,39.6c9.6,0,19.2,0,28.8,0h18.9c4.6-9.5,9.3-19.1,13.9-28.6 c8.1-16.5,16.4-33.5,24.2-50.4C318.2,276.1,318.7,275.8,319.2,275.8z"></path> </g> </g> <g> <g> <path class="st0" d="M69.5,249.5c-4,3.7-4.1,9.5-4.3,14.5c-1.1,14.4-1.9,28.7-3.1,43.1c-0.1,4.8,2.3,9.9,6.5,12.3 c4.4,3,10,1.7,14.9,2.8c0.3-2,0.7-4,0.7-6c1.3-23.4,3.7-46.8,4.6-70.2C82.4,245.4,74.4,244.1,69.5,249.5z"></path> </g> <g> <path class="st1" d="M83.5,323.7c-0.1,0-0.2,0-0.3,0c-1.7-0.4-3.4-0.5-5.3-0.6c-3.4-0.2-7-0.4-10.1-2.5 c-4.4-2.6-7.2-7.9-7.1-13.5c0.7-8,1.2-15.8,1.7-23.7c0.4-6.5,0.9-13,1.4-19.4l0-0.4c0.2-5.2,0.3-11.1,4.6-15 c5.1-5.6,12.9-4.7,19.2-4l1.2,0.1c0.7,0.1,1.3,0.7,1.2,1.4c-0.5,13.6-1.6,27.5-2.6,40.9c-0.7,9.6-1.5,19.6-2,29.4 c-0.1,1.5-0.3,2.9-0.5,4.4l-0.3,1.8c-0.1,0.4-0.3,0.7-0.6,1C84.1,323.6,83.8,323.7,83.5,323.7z M80.7,246.8 c-3.9,0-7.5,0.8-10.1,3.6c0,0-0.1,0.1-0.1,0.1c-3.5,3.2-3.6,8.3-3.8,13.1l0,0.4c-0.5,6.5-1,13-1.4,19.5 c-0.5,7.9-1.1,15.8-1.7,23.7c-0.1,4.5,2.3,9,5.8,11c2.6,1.7,5.6,1.9,8.8,2.1c1.4,0.1,2.8,0.1,4.3,0.4c0-0.1,0-0.2,0.1-0.4 c0.2-1.4,0.4-2.7,0.5-4.1c0.5-9.8,1.3-19.8,2-29.5c1-12.9,2-26.3,2.5-39.5C85.2,247,82.9,246.8,80.7,246.8z M69.5,249.5 L69.5,249.5L69.5,249.5z"></path> </g> </g> <g> <g> <path class="st0" d="M262,202.9c9.6-1.3,18.7-6.2,24.9-13.7c8.9-10.3,12-25.2,7.9-38.2c-5.2-18.7-25-31.4-44.2-28.5 c-14.4,1.8-27.3,11.8-32.5,25.3c-4.5,11.8-3.6,25.7,3.3,36.4C229.6,197.8,246.4,205.5,262,202.9z"></path> </g> <g> <path class="st1" d="M255.8,204.8c-14.2,0-28.2-7.6-35.6-19.9c-6.9-10.7-8.2-25.2-3.4-37.6c5.4-14,18.6-24.3,33.6-26.2 c19.9-3,40.3,10.2,45.7,29.5c4.2,13.4,0.9,28.9-8.2,39.5c-6.4,7.6-15.7,12.7-25.7,14.1C260.1,204.6,257.9,204.8,255.8,204.8z M256.2,123.5c-1.8,0-3.6,0.1-5.3,0.4c-14.1,1.8-26.4,11.4-31.4,24.5c-4.5,11.6-3.3,25.1,3.1,35.1c7.9,13.2,24,20.6,39.2,18.1 c0,0,0,0,0,0c9.3-1.3,18.1-6.1,24-13.2c8.6-9.9,11.6-24.4,7.7-36.9C289,135.1,272.9,123.5,256.2,123.5z"></path> </g> </g> <g> <path class="st0" d="M440.5,247.8c-4.6-3.4-10.7-2.2-16-2.2c-0.3,0.3-0.9,0.9-1.2,1.2c-0.3,12.4,1.8,24.8,2,37.2 c1.1,12.7,2.2,25.4,2.5,38.2c5.2-1,11,0.2,15.6-3c4.9-2.6,6.6-8.4,6.1-13.6c-0.8-15.4-2.1-30.8-3.1-46.2 C446.3,255,444.5,250.4,440.5,247.8z"></path> </g> <g> <path class="st2" d="M491.8,156.2c-17.9-42.5-47.6-79.9-84.9-107C367.1,19.8,318.3,2.7,268.8,0.3 c-54.6-2.8-110.2,12.2-155.4,43.1C69,72.8,34.6,116.6,16,166.4c-17.5,47-20.7,99-9.4,147.8c12.2,53,42,101.7,83.5,136.8 c39.9,34.1,90.6,55.5,142.9,59.8c73.9,7.2,150.7-20,203-73c41.4-40.2,68-95.3,74.3-152.7C515.4,241.6,508.9,196.7,491.8,156.2z M505.9,275.5c-4.2,51.8-24.6,102.1-58.3,141.7c-16,19.1-35,35.8-56,49.3c-42.8,27.9-94.4,41.9-145.4,39.9 c-52.2-2-103.7-20.9-144.7-53.3c-42.3-32.9-73.3-79.9-87.3-131.5c-3.9-14.2-6.2-28.7-7.8-43.3c-1.7-21.5-0.9-43.2,2.7-64.6 c9.2-54.2,37.1-105,77.6-142.1c36.4-33.4,82.9-56,131.8-63.2c58-9.1,119.1,3.4,169,34.5C448.3,80,491.8,144.4,503.1,214.9 c1.6,10.1,2.7,20.3,3.1,30.6C507.5,255.5,506.1,265.5,505.9,275.5z"></path> </g> <g> <path class="st2" d="M438.7,109.7c-7.5-9.9-16.8-18.3-25.5-27.1c-16.9-15.3-36-28.2-56.6-38c-39.5-18.8-84.4-26.1-127.9-21 C179.5,29.1,132.2,51,96.1,85c-43,39.9-70.1,96.7-73.5,155.3C18.2,299.5,37.7,360,75.8,405.5c6.9,7.9,13.6,16.1,21.8,22.8 c38.5,35.9,89.6,57.8,142,61.1c49,3.7,99.1-8.8,140.6-35c32.3-20.3,59.6-48.5,78.6-81.6c22.1-38.1,32.9-82.6,30.9-126.6 C488,196.8,469.7,148.2,438.7,109.7z M218.2,147.9c5.2-13.6,18.1-23.5,32.5-25.3c19.1-2.9,39,9.8,44.2,28.5 c4,13,0.9,27.9-7.9,38.2c-6.2,7.4-15.3,12.3-24.9,13.7c-15.6,2.6-32.4-5.1-40.6-18.7C214.6,173.5,213.6,159.6,218.2,147.9z M83.5,322.3c-4.9-1.1-10.5,0.1-14.9-2.8c-4.3-2.5-6.6-7.5-6.5-12.3c1.2-14.3,2-28.7,3.1-43.1c0.2-5,0.2-10.8,4.3-14.5 c4.9-5.4,12.9-4.1,19.3-3.4c-0.9,23.4-3.3,46.8-4.6,70.2C84.2,318.3,83.8,320.3,83.5,322.3z M129.4,362.9 c-10-0.6-21,0.5-29.8-5.3c-7.7-4.8-12.2-13.8-12.6-22.8c2.3-32.2,4.7-64.3,6.6-96.5c0.5-9.3,4.7-18.8,13-23.7 c7.2-5.2,16.5-4.1,24.8-3.7c2.8,0.7,5.8,0.5,8.7,0.5c-2.9,49-6.8,97.9-10,146.8C129.9,359.8,129.7,361.4,129.4,362.9z M367.5,364.2c-7.4,15.8-24.7,25.9-42,25.5c-0.9-32-3.4-63.9-4.7-95.9c-1.1-5.5,0.4-11.4-1.6-16.7 c-12.4,26.8-25.8,53.2-38.6,79.8c-16.5,0-33,0-49.5,0c-12.8-27.2-26.5-54.1-39.3-81.3c-0.2,20.3-2.3,40.5-2.8,60.8 c-1.3,16.1-2,32.3-2.6,48.5c-0.3,1.6-0.6,3.2-0.7,4.8c-12.3-0.1-24.7-5-33.1-14c-8.8-8.7-13.3-21.1-13.2-33.3 c1.5-18.1,2.9-36.1,4.1-54.2c1.8-20.1,3-40.2,4.7-60.3c1.7-16.1,12.3-31.2,27-38.1c6.8-3.7,14.6-4.9,22.3-5.4 c19.2,41.6,38.9,82.9,58.5,124.3c19.7-41.4,39.1-82.9,58.8-124.4c12.1,0.7,24.3,4.5,33.2,13c9.5,8.4,15.3,20.7,16.1,33.3 c2,28.3,4.4,56.5,6.2,84.8C371.1,331.7,375.5,349.2,367.5,364.2z M411.5,358.2c-9,5.1-19.6,4.3-29.5,4.6 c-1.9-36.6-5.1-73.1-7.4-109.6c-1.2-13.9-1.7-27.9-3.1-41.8c10.2,0.5,21.1-3.2,30.7,1.6c8.6,3.8,14.7,12.4,15.6,21.7 c1.7,21.5,2.9,43,4.6,64.6c0.4,12.3,2.2,24.5,2.1,36.7C424.8,345.1,419,353.5,411.5,358.2z M443.4,319.3c-4.6,3.2-10.4,2-15.6,3 c-0.3-12.8-1.4-25.5-2.5-38.2c-0.2-12.4-2.3-24.8-2-37.2c0.3-0.3,0.9-0.9,1.2-1.2c5.3,0,11.4-1.3,16,2.2 c3.9,2.5,5.8,7.2,5.9,11.8c1,15.4,2.3,30.8,3.1,46.2C450,310.9,448.3,316.7,443.4,319.3z"></path> <path class="st1" d="M256.6,491.4c-5.7,0-11.4-0.2-17.1-0.6c-53.3-3.4-104-25.2-142.9-61.5c-7.1-5.8-13.2-12.9-19.1-19.7 l-2.8-3.2c-38.5-45.8-58-106.4-53.6-166.2c3.4-58.8,30.4-115.8,74-156.2c36.5-34.3,83.9-56.2,133.4-61.8 c43.6-5.1,89.3,2.4,128.6,21.2c20.4,9.6,39.5,22.5,56.9,38.2c2.1,2.1,4.1,4.1,6.1,6.1c6.7,6.6,13.7,13.5,19.6,21.3 c31.3,38.9,49.6,87.6,51.3,137.3c2,44-9,89.2-31.1,127.3c-19,33.1-46.4,61.5-79.1,82.1C343.9,478.9,300.3,491.4,256.6,491.4z M255.5,23.4c-8.9,0-17.8,0.5-26.6,1.5C179.9,30.4,133.1,52.1,97,86C54,126,27.3,182.3,24,240.4c-4.4,59.1,14.9,118.9,52.9,164.2 l2.8,3.2c5.8,6.7,11.8,13.7,18.8,19.4c38.5,35.9,88.6,57.4,141.2,60.8c48.8,3.7,98.4-8.7,139.8-34.8 c32.3-20.3,59.4-48.4,78.2-81.1c21.8-37.7,32.7-82.4,30.7-125.8c-1.8-49.1-19.8-97.3-50.7-135.7c0,0,0,0,0,0 c-5.7-7.6-12.6-14.4-19.3-21c-2-2-4.1-4-6.1-6c-17.1-15.5-36.1-28.2-56.2-37.7C325.1,31.1,290.2,23.4,255.5,23.4z M185.7,391.2 C185.7,391.2,185.7,391.2,185.7,391.2c-13.2-0.1-25.7-5.4-34.1-14.4c-8.7-8.5-13.6-21-13.6-34.3c1.6-18.6,2.9-36.9,4.1-54.3 c1-10.8,1.8-21.9,2.5-32.5c0.7-9.3,1.4-18.6,2.1-27.8c1.8-16.8,12.7-32.1,27.8-39.2c7.6-4.1,16.2-5.1,22.8-5.5 c0.7-0.1,1.1,0.3,1.3,0.8c14.6,31.6,29.8,63.7,44.5,94.7c4.3,9,8.5,18,12.8,27c9-18.9,17.9-37.8,26.8-56.8 c10.2-21.7,20.4-43.3,30.7-65c0.2-0.5,0.7-0.9,1.3-0.8c9.7,0.5,23.5,3.3,34.1,13.4c9.6,8.6,15.7,21,16.5,34.2 c0.9,12.4,1.8,24.7,2.8,37.1c1.2,15.9,2.4,31.8,3.5,47.7c0.2,3.5,0.5,7.2,0.9,10.7c1.3,13.1,2.6,26.5-3.8,38.7 c-7.4,15.8-24.3,26.3-42.3,26.3c-0.3,0-0.6,0-0.9,0c-0.7,0-1.3-0.6-1.4-1.3c-0.5-18.4-1.6-37.2-2.6-55.3 c-0.8-13.3-1.6-27-2.1-40.6c-0.4-2.2-0.4-4.7-0.4-7.1c0-1.9,0-3.7-0.2-5.5c-7.3,15.8-15.1,31.6-22.6,46.9 c-4.8,9.8-9.6,19.5-14.3,29.3c-0.2,0.5-0.7,0.8-1.2,0.8l0,0h-19.8c-9.9,0-19.8,0-29.7,0c-0.5,0-1-0.3-1.2-0.8 c-6.4-13.5-13-27.1-19.5-40.3c-5.7-11.7-11.6-23.7-17.3-35.7c-0.2,8.9-0.8,17.8-1.3,26.4c-0.6,9.3-1.1,19-1.4,28.5 c-1.2,15.6-1.9,31.2-2.6,48.5c-0.3,1.8-0.6,3.3-0.7,4.9C187,390.7,186.4,391.2,185.7,391.2z M319.2,275.8 C319.2,275.8,319.2,275.8,319.2,275.8c0.6,0,1.1,0.4,1.3,0.9c1.3,3.4,1.3,6.8,1.3,10.2c0,2.4,0,4.6,0.4,6.8 c0.6,13.7,1.4,27.5,2.1,40.7c1,17.7,2.1,36,2.6,54c16.5-0.2,32.6-10.2,39.4-24.8c0,0,0,0,0-0.1c6-11.4,4.7-24.5,3.5-37.1 c-0.4-3.6-0.7-7.3-0.9-10.8c-1.1-15.9-2.3-31.8-3.5-47.6c-0.9-12.4-1.9-24.7-2.8-37.1c-0.8-12.4-6.5-24.2-15.6-32.3 c-9.7-9.2-22.3-12-31.5-12.6c-10.1,21.3-20.2,42.7-30.3,64.1c-9.3,19.8-18.7,39.6-28.1,59.4c-0.2,0.5-0.7,0.8-1.2,0.8l0,0 c-0.5,0-1-0.3-1.2-0.8c-4.7-9.9-9.4-19.8-14-29.6c-14.6-30.7-29.6-62.5-44.1-93.8c-8.9,0.7-15.3,2.3-20.8,5.2 c-14.3,6.7-24.6,21.2-26.3,37c-0.8,9.2-1.5,18.5-2.1,27.8c-0.8,10.7-1.6,21.7-2.5,32.5c-1.1,17.4-2.5,35.7-4.1,54.2 c0,12.4,4.6,24.2,12.8,32.2c7.6,8.1,19.1,13.1,30.9,13.6c0.2-1.2,0.4-2.5,0.6-3.7c0.7-17.2,1.4-32.8,2.6-48.3 c0.2-9.5,0.8-19.2,1.4-28.6c0.6-10.5,1.3-21.4,1.4-32.2c0-0.6,0.5-1.2,1.1-1.3c0.6-0.1,1.3,0.2,1.5,0.8 c6.5,13.7,13.2,27.5,19.8,40.9c6.3,12.9,12.9,26.3,19.1,39.6c9.6,0,19.2,0,28.8,0h18.9c4.6-9.5,9.3-19.1,13.9-28.6 c8.1-16.5,16.4-33.5,24.2-50.4C318.2,276.1,318.7,275.8,319.2,275.8z M129.4,364.3C129.4,364.3,129.4,364.3,129.4,364.3 c-2-0.1-4-0.2-6-0.2c-8.4-0.2-17.1-0.4-24.5-5.3c-7.7-4.8-12.8-13.9-13.2-23.9c0.6-8.4,1.2-16.7,1.8-25 c1.7-23.5,3.4-47.8,4.9-71.7c0.6-10.9,5.7-20.1,13.6-24.8c6.8-4.9,15.4-4.4,23-4.1l2.6,0.1c2.5,0.6,4.9,0.6,7.3,0.5l1.3,0 c0.4,0,0.7,0.2,1,0.4c0.3,0.3,0.4,0.6,0.4,1c-1.6,28-3.7,56.4-5.6,83.9c-1.5,21-3,41.9-4.3,62.9c-0.2,1.6-0.4,3.2-0.7,4.8 C130.7,363.8,130.1,364.3,129.4,364.3z M122.4,212c-5.4,0-10.6,0.7-15,3.8c-7.2,4.3-11.8,12.8-12.4,22.7 c-1.4,23.9-3.2,48.2-4.9,71.7c-0.6,8.3-1.2,16.5-1.8,24.8c0.4,8.9,5,17.2,12,21.5c6.8,4.4,15.1,4.6,23.1,4.8 c1.6,0,3.2,0.1,4.8,0.2c0.2-1.1,0.3-2.2,0.5-3.4c1.3-20.9,2.8-41.9,4.3-62.9c1.9-27,3.9-54.9,5.5-82.4c-2.5,0-5,0-7.6-0.6 l-2.4-0.1C126.6,212.1,124.5,212,122.4,212z M381.9,364.2c-0.7,0-1.3-0.6-1.4-1.3c-1.1-21.3-2.7-43-4.2-63.9 c-1.1-15-2.2-30.5-3.2-45.7c-0.5-6.1-0.9-12.3-1.3-18.4c-0.5-7.7-1-15.6-1.8-23.3c0-0.4,0.1-0.8,0.4-1.1c0.3-0.3,0.7-0.5,1.1-0.4 c3.2,0.1,6.7-0.1,10-0.4c7.1-0.6,14.5-1.2,21.3,2.1c8.9,3.9,15.4,12.9,16.4,22.8c0.8,10,1.5,20.1,2.1,30.1 c0.8,11.5,1.6,23,2.5,34.5c0.2,5.1,0.6,10.3,1,15.3c0.6,7.1,1.2,14.3,1.1,21.6c0.2,8.8-5.2,18-13.7,23.4c0,0,0,0-0.1,0 c-7.8,4.4-16.7,4.6-25.3,4.7C385.3,364.1,383.6,364.2,381.9,364.2C382,364.2,382,364.2,381.9,364.2z M373,212.9 c0.7,7.3,1.2,14.7,1.7,21.8c0.4,6.1,0.8,12.3,1.3,18.4c0.9,15.3,2.1,30.8,3.2,45.7c1.5,20.5,3,41.7,4.1,62.6c1.2,0,2.4,0,3.6-0.1 c8.2-0.1,16.7-0.3,23.9-4.3c7.7-4.8,12.6-13.1,12.4-21c0.1-7.1-0.5-14.4-1.1-21.4c-0.4-5-0.8-10.2-1-15.4 c-0.9-11.4-1.7-23-2.5-34.5c-0.7-10-1.4-20-2.1-30c-0.9-8.9-6.7-17-14.8-20.5c-6.2-3-12.8-2.5-19.9-1.9 C378.9,212.6,375.9,212.9,373,212.9z M411.5,358.2L411.5,358.2L411.5,358.2z M83.5,323.7c-0.1,0-0.2,0-0.3,0 c-1.7-0.4-3.4-0.5-5.3-0.6c-3.4-0.2-7-0.4-10.1-2.5c-4.4-2.6-7.2-7.9-7.1-13.5c0.7-8,1.2-15.8,1.7-23.7c0.4-6.5,0.9-13,1.4-19.4 l0-0.4c0.2-5.2,0.3-11.1,4.7-15.1c5-5.5,12.9-4.6,19.2-3.9l1.2,0.1c0.7,0.1,1.3,0.7,1.2,1.4c-0.5,13.6-1.6,27.5-2.6,40.9 c-0.7,9.6-1.5,19.6-2,29.4c-0.1,1.5-0.3,2.9-0.5,4.4l-0.3,1.8c-0.1,0.4-0.3,0.7-0.6,1C84.1,323.6,83.8,323.7,83.5,323.7z M80.7,246.8c-3.9,0-7.5,0.8-10.1,3.6c-3.6,3.3-3.7,8.3-3.9,13.2l0,0.4c-0.5,6.5-1,13-1.4,19.5c-0.5,7.9-1.1,15.8-1.7,23.7 c-0.1,4.5,2.3,9,5.8,11c2.6,1.7,5.6,1.9,8.8,2.1c1.4,0.1,2.8,0.1,4.3,0.4c0-0.1,0-0.2,0.1-0.4c0.2-1.4,0.4-2.7,0.5-4.1 c0.5-9.8,1.3-19.8,2-29.5c1-12.9,2-26.3,2.5-39.5C85.2,247,82.9,246.8,80.7,246.8z M427.8,323.6c-0.3,0-0.6-0.1-0.9-0.3 c-0.3-0.3-0.5-0.6-0.5-1c-0.3-11.8-1.3-23.8-2.3-35.4l-0.2-2.7c-0.1-5.5-0.6-11.1-1-16.5c-0.6-6.8-1.2-13.9-1-20.8 c0-0.3,0.1-0.7,0.4-0.9l1.2-1.2c0.3-0.3,0.6-0.4,1-0.4c1.1,0,2.2-0.1,3.3-0.1c4.4-0.2,9.5-0.5,13.5,2.6c3.9,2.5,6.3,7.3,6.4,12.8 c0.3,4.9,0.7,9.9,1.1,14.9c0.7,10.2,1.5,20.8,2,31.3c0.5,4.9-1,11.7-6.7,14.8c-3.4,2.3-7.2,2.5-10.9,2.7 c-1.8,0.1-3.5,0.2-5.1,0.5C428,323.6,427.9,323.6,427.8,323.6z M424.7,247.5c-0.1,6.7,0.4,13.4,1,20c0.5,5.4,0.9,11,1,16.6 l0.2,2.6c0.9,11.1,1.9,22.7,2.2,34c1.3-0.2,2.6-0.2,3.9-0.3c3.5-0.2,6.8-0.3,9.6-2.2c0,0,0.1-0.1,0.1-0.1 c4.6-2.4,5.8-8.1,5.3-12.2c-0.5-10.5-1.3-21.1-2-31.3c-0.4-5-0.7-9.9-1.1-14.9c-0.1-4.7-2.1-8.7-5.2-10.7 c-3.3-2.5-7.7-2.3-11.8-2.1c-1,0-1.9,0.1-2.9,0.1L424.7,247.5z M255.8,204.8c-14.2,0-28.2-7.6-35.5-19.9 c-6.9-10.7-8.2-25.2-3.4-37.6c5.4-14,18.6-24.3,33.6-26.2c19.9-3,40.3,10.2,45.7,29.5c4.2,13.4,0.9,28.9-8.2,39.5 c-6.4,7.6-15.7,12.8-25.7,14.1C260.1,204.6,257.9,204.8,255.8,204.8z M256.2,123.5c-1.8,0-3.6,0.1-5.3,0.4 c-14.1,1.8-26.4,11.4-31.4,24.5v0c-4.5,11.6-3.3,25.1,3.1,35.1c7.9,13.2,24,20.6,39.2,18.1c9.4-1.3,18.1-6.1,24.1-13.2 c8.6-9.9,11.6-24.4,7.7-36.9C289,135.1,272.9,123.5,256.2,123.5z M218.2,147.9L218.2,147.9L218.2,147.9z"></path> </g> </g> </g> </svg> 