<?xml version="1.0" encoding="UTF-8"?> <!-- Generator: Adobe Illustrator 19.2.1, SVG Export Plug-In . SVG Version: 6.00 Build 0) --> <svg xmlns="http://www.w3.org/2000/svg" xmlns:xlink="http://www.w3.org/1999/xlink" id="Layer_1" x="0px" y="0px" width="300px" height="100px" viewBox="0 0 300 100" style="enable-background:new 0 0 300 100;" xml:space="preserve"> <style type="text/css"> .st0{fill:#1B1A1B;} .st1{fill:#FFFFFF;} .st2{fill:#B92025;} </style> <g> <g> <g> <path class="st0" d="M83.6,48.3c-0.1-1.6-0.2-3.3-0.5-4.9c-1.8-11.3-8.8-21.6-18.6-27.6c-8-5-17.8-7-27.1-5.5 c-7.8,1.2-15.3,4.8-21.1,10.1c-6.5,6-11,14.1-12.4,22.8c-0.6,3.4-0.7,6.9-0.4,10.3c0.3,2.3,0.6,4.7,1.3,6.9 c2.2,8.3,7.2,15.8,14,21.1c6.6,5.2,14.8,8.2,23.2,8.5c8.2,0.3,16.4-1.9,23.3-6.4c3.4-2.2,6.4-4.8,9-7.9 c5.4-6.3,8.7-14.4,9.3-22.7C83.6,51.5,83.8,49.9,83.6,48.3z"></path> </g> <g> <g> <g> <path class="st0" d="M23.6,42.8c-1.3-0.1-2.8-0.2-4,0.6c-1.3,0.8-2,2.3-2.1,3.8c-0.3,5.2-0.7,10.3-1.1,15.5 c0.1,1.4,0.8,2.9,2,3.6c1.4,0.9,3.2,0.7,4.8,0.8c0-0.2,0.1-0.5,0.1-0.7c0.5-7.8,1.1-15.7,1.6-23.5C24.5,42.9,24,42.9,23.6,42.8 z"></path> </g> <g> <path class="st1" d="M23.2,67.4C23.2,67.4,23.2,67.4,23.2,67.4c-0.3,0-0.6,0-1,0c-1.4,0-2.7-0.1-3.9-0.8 c-1.2-0.8-2-2.2-2.1-3.8c0.1-1.4,0.2-2.7,0.3-4c0.3-3.8,0.6-7.7,0.8-11.5c0.1-1.7,0.9-3.2,2.2-4c1.1-0.8,2.5-0.7,3.7-0.7l0.4,0 c0,0,0,0,0,0c0.4,0.1,0.7,0.1,1.1,0.1l0.2,0c0.1,0,0.1,0,0.2,0.1c0,0,0.1,0.1,0.1,0.2c-0.3,4.5-0.6,9-0.9,13.4 c-0.2,3.4-0.5,6.7-0.7,10.1c0,0.3-0.1,0.5-0.1,0.8C23.4,67.3,23.3,67.4,23.2,67.4z M22.1,42.9c-0.9,0-1.7,0.1-2.4,0.6 c-1.2,0.7-1.9,2-2,3.6c-0.2,3.8-0.5,7.7-0.8,11.5c-0.1,1.3-0.2,2.6-0.3,4c0.1,1.4,0.8,2.8,1.9,3.4c1.1,0.7,2.4,0.7,3.7,0.8 c0.3,0,0.5,0,0.8,0c0-0.2,0.1-0.4,0.1-0.5c0.2-3.4,0.5-6.7,0.7-10.1c0.3-4.3,0.6-8.8,0.9-13.2c-0.4,0-0.8,0-1.2-0.1l-0.4,0 C22.8,43,22.4,42.9,22.1,42.9z"></path> </g> </g> <g> <g> <path class="st0" d="M69.5,46.6c-0.2-1.5-1.1-2.9-2.5-3.5c-1.5-0.8-3.3-0.2-4.9-0.2c0.2,2.2,0.3,4.5,0.5,6.7 c0.4,5.9,0.9,11.7,1.2,17.6c1.6-0.1,3.3,0.1,4.7-0.7c1.2-0.8,2.1-2.1,2.1-3.6c0-2-0.3-3.9-0.3-5.9C69.9,53.5,69.7,50,69.5,46.6 z"></path> </g> <g> <path class="st1" d="M63.7,67.3c-0.1,0-0.2-0.1-0.2-0.2c-0.2-3.4-0.4-6.9-0.7-10.2c-0.2-2.4-0.4-4.9-0.5-7.3 c-0.1-1-0.2-2-0.2-2.9c-0.1-1.2-0.2-2.5-0.3-3.7c0-0.1,0-0.1,0.1-0.2s0.1-0.1,0.2-0.1c0.5,0,1.1,0,1.6-0.1 c1.1-0.1,2.3-0.2,3.4,0.3c1.4,0.6,2.5,2.1,2.6,3.7c0,0,0,0,0,0c0.1,1.6,0.2,3.2,0.3,4.8c0.1,1.8,0.3,3.7,0.4,5.5 c0,0.8,0.1,1.6,0.2,2.5c0.1,1.1,0.2,2.3,0.2,3.5c0,1.4-0.8,2.9-2.2,3.7c-1.3,0.7-2.7,0.7-4.1,0.8C64.2,67.3,64,67.3,63.7,67.3 L63.7,67.3z M62.3,43.1c0.1,1.2,0.2,2.4,0.3,3.5c0.1,1,0.1,2,0.2,2.9c0.2,2.4,0.3,4.9,0.5,7.3c0.2,3.3,0.5,6.7,0.7,10 c0.2,0,0.4,0,0.6,0c1.3,0,2.7,0,3.8-0.7c1.2-0.8,2-2.1,2-3.4c0-1.1-0.1-2.3-0.2-3.4c-0.1-0.8-0.1-1.6-0.2-2.5 c-0.1-1.8-0.3-3.7-0.4-5.5c-0.1-1.6-0.2-3.2-0.3-4.8c-0.1-1.4-1.1-2.7-2.4-3.3c-1-0.5-2.1-0.4-3.2-0.3 C63.2,43.1,62.7,43.1,62.3,43.1z"></path> </g> </g> <g> <g> <path class="st0" d="M60.8,46c-0.1-2-1.1-4-2.6-5.3c-1.4-1.4-3.4-2-5.3-2.1c-3.2,6.6-6.3,13.3-9.4,19.9 c-3.1-6.6-6.3-13.3-9.4-19.9c-1.2,0.1-2.5,0.3-3.6,0.9c-2.4,1.1-4.1,3.5-4.3,6.1c-0.3,3.2-0.5,6.4-0.7,9.7 c-0.2,2.9-0.4,5.8-0.7,8.7c0,2,0.7,4,2.1,5.3c1.4,1.4,3.3,2.2,5.3,2.2c0-0.3,0.1-0.5,0.1-0.8c0.1-2.6,0.2-5.2,0.4-7.8 c0.1-3.3,0.4-6.5,0.4-9.7c2.1,4.4,4.2,8.7,6.3,13c2.6,0,5.3,0,7.9,0c2.1-4.3,4.2-8.5,6.2-12.8c0.3,0.9,0.1,1.8,0.3,2.7 c0.2,5.1,0.6,10.2,0.8,15.4c2.8,0.1,5.5-1.6,6.7-4.1c1.3-2.4,0.6-5.2,0.4-7.8C61.5,55,61.2,50.5,60.8,46z"></path> </g> <g> <path class="st1" d="M32.3,71.7L32.3,71.7c-2.1,0-4.1-0.9-5.5-2.3c-1.4-1.4-2.2-3.4-2.2-5.5c0.2-3,0.5-5.9,0.7-8.7 c0.2-1.7,0.3-3.5,0.4-5.2c0.1-1.5,0.2-3,0.3-4.5c0.3-2.7,2-5.1,4.5-6.3c1.2-0.7,2.6-0.8,3.7-0.9c0.1,0,0.2,0,0.2,0.1 c2.3,5.1,4.8,10.2,7.1,15.2c0.7,1.4,1.4,2.9,2,4.3c1.4-3,2.9-6.1,4.3-9.1c1.6-3.5,3.3-6.9,4.9-10.4c0-0.1,0.1-0.1,0.2-0.1 c1.6,0.1,3.8,0.5,5.5,2.1c1.5,1.4,2.5,3.4,2.6,5.5c0.1,2,0.3,4,0.4,5.9c0.2,2.5,0.4,5.1,0.6,7.6c0,0.6,0.1,1.2,0.1,1.7 c0.2,2.1,0.4,4.3-0.6,6.2c-1.2,2.5-3.9,4.2-6.8,4.2c-0.1,0-0.1,0-0.2,0c-0.1,0-0.2-0.1-0.2-0.2c-0.1-3-0.3-6-0.4-8.9 c-0.1-2.1-0.3-4.3-0.3-6.5c-0.1-0.4-0.1-0.8-0.1-1.1c0-0.3,0-0.6,0-0.9c-1.2,2.5-2.4,5.1-3.6,7.5c-0.8,1.6-1.5,3.1-2.3,4.7 c0,0.1-0.1,0.1-0.2,0.1l0,0h-3.2c-1.6,0-3.2,0-4.8,0c-0.1,0-0.2,0-0.2-0.1c-1-2.2-2.1-4.3-3.1-6.5c-0.9-1.9-1.9-3.8-2.8-5.7 c0,1.4-0.1,2.8-0.2,4.2c-0.1,1.5-0.2,3-0.2,4.6c-0.2,2.5-0.3,5-0.4,7.8c-0.1,0.3-0.1,0.5-0.1,0.8 C32.5,71.6,32.4,71.7,32.3,71.7z M53.6,53.2C53.6,53.2,53.7,53.2,53.6,53.2c0.1,0,0.2,0.1,0.2,0.1c0.2,0.5,0.2,1.1,0.2,1.6 c0,0.4,0,0.7,0.1,1.1c0.1,2.2,0.2,4.4,0.3,6.5c0.2,2.8,0.3,5.8,0.4,8.7c2.7,0,5.2-1.6,6.3-4c1-1.8,0.8-3.9,0.6-6 c-0.1-0.6-0.1-1.2-0.1-1.7c-0.2-2.5-0.4-5.1-0.6-7.6c-0.2-2-0.3-4-0.4-5.9l0,0c-0.1-2-1-3.9-2.5-5.2c-1.6-1.5-3.6-1.9-5-2 c-1.6,3.4-3.2,6.8-4.9,10.3c-1.5,3.2-3,6.3-4.5,9.5c0,0.1-0.1,0.1-0.2,0.1l0,0c-0.1,0-0.2,0-0.2-0.1c-0.7-1.6-1.5-3.2-2.2-4.7 c-2.3-4.9-4.7-10-7.1-15c-1.4,0.1-2.5,0.4-3.3,0.8c-2.3,1.1-3.9,3.4-4.2,5.9c-0.1,1.5-0.2,3-0.3,4.4c-0.1,1.7-0.3,3.5-0.4,5.2 c-0.2,2.8-0.4,5.7-0.7,8.7c0,2,0.7,3.9,2.1,5.2c1.2,1.3,3.1,2.1,5,2.2c0-0.2,0.1-0.4,0.1-0.6c0.1-2.7,0.2-5.3,0.4-7.7 c0-1.5,0.1-3.1,0.2-4.6c0.1-1.7,0.2-3.4,0.2-5.2c0-0.1,0.1-0.2,0.2-0.2c0.1,0,0.2,0,0.2,0.1c1,2.2,2.1,4.4,3.2,6.6 c1,2.1,2.1,4.2,3.1,6.3c1.5,0,3.1,0,4.6,0h3c0.7-1.5,1.5-3.1,2.2-4.6c1.3-2.6,2.6-5.4,3.9-8.1C53.5,53.2,53.6,53.2,53.6,53.2z"></path> </g> </g> <g> <g> <path class="st0" d="M13.6,49C13,49.6,13,50.5,13,51.3c-0.2,2.3-0.3,4.6-0.5,6.9c0,0.8,0.4,1.6,1,2c0.7,0.5,1.6,0.3,2.4,0.5 c0-0.3,0.1-0.6,0.1-1c0.2-3.8,0.6-7.5,0.7-11.3C15.7,48.3,14.4,48.1,13.6,49z"></path> </g> <g> <path class="st1" d="M15.9,60.8C15.9,60.8,15.9,60.8,15.9,60.8c-0.3-0.1-0.6-0.1-0.9-0.1c-0.6,0-1.1-0.1-1.6-0.4 c-0.7-0.4-1.2-1.3-1.1-2.2c0.1-1.3,0.2-2.5,0.3-3.8c0.1-1,0.1-2.1,0.2-3.1l0-0.1c0-0.8,0.1-1.8,0.7-2.4 c0.8-0.9,2.1-0.8,3.1-0.6l0.2,0c0.1,0,0.2,0.1,0.2,0.2c-0.1,2.2-0.3,4.4-0.4,6.5c-0.1,1.5-0.2,3.1-0.3,4.7c0,0.2,0,0.5-0.1,0.7 l0,0.3c0,0.1,0,0.1-0.1,0.2C16,60.8,15.9,60.8,15.9,60.8z M15.4,48.5c-0.6,0-1.2,0.1-1.6,0.6c0,0,0,0,0,0 c-0.6,0.5-0.6,1.3-0.6,2.1l0,0.1c-0.1,1-0.2,2.1-0.2,3.1c-0.1,1.3-0.2,2.5-0.3,3.8c0,0.7,0.4,1.4,0.9,1.8 c0.4,0.3,0.9,0.3,1.4,0.3c0.2,0,0.5,0,0.7,0.1c0,0,0,0,0-0.1c0-0.2,0.1-0.4,0.1-0.7c0.1-1.6,0.2-3.2,0.3-4.7 c0.2-2.1,0.3-4.2,0.4-6.3C16.2,48.6,15.8,48.5,15.4,48.5z M13.6,49L13.6,49L13.6,49z"></path> </g> </g> <g> <g> <path class="st0" d="M44.5,41.5c1.5-0.2,3-1,4-2.2c1.4-1.6,1.9-4,1.3-6.1c-0.8-3-4-5-7.1-4.6c-2.3,0.3-4.4,1.9-5.2,4.1 c-0.7,1.9-0.6,4.1,0.5,5.8C39.3,40.7,42,41.9,44.5,41.5z"></path> </g> <g> <path class="st1" d="M43.5,41.8c-2.3,0-4.5-1.2-5.7-3.2c-1.1-1.7-1.3-4-0.5-6c0.9-2.2,3-3.9,5.4-4.2c3.2-0.5,6.5,1.6,7.3,4.7 c0.7,2.1,0.1,4.6-1.3,6.3c-1,1.2-2.5,2-4.1,2.3C44.2,41.8,43.8,41.8,43.5,41.8z M43.6,28.8c-0.3,0-0.6,0-0.9,0.1 c-2.3,0.3-4.2,1.8-5,3.9c-0.7,1.9-0.5,4,0.5,5.6c1.3,2.1,3.8,3.3,6.3,2.9c0,0,0,0,0,0c1.5-0.2,2.9-1,3.8-2.1 c1.4-1.6,1.9-3.9,1.2-5.9C48.8,30.6,46.2,28.8,43.6,28.8z"></path> </g> </g> <g> <path class="st0" d="M73.1,48.7c-0.7-0.6-1.7-0.3-2.6-0.3c0,0-0.1,0.1-0.2,0.2c-0.1,2,0.3,4,0.3,6c0.2,2,0.4,4.1,0.4,6.1 c0.8-0.2,1.8,0,2.5-0.5c0.8-0.4,1.1-1.3,1-2.2c-0.1-2.5-0.3-4.9-0.5-7.4C74,49.8,73.7,49.1,73.1,48.7z"></path> </g> <g> <path class="st2" d="M81.3,34c-2.9-6.8-7.6-12.8-13.6-17.2C61.3,12.1,53.5,9.4,45.6,9c-8.8-0.5-17.7,2-24.9,6.9 C13.6,20.6,8,27.7,5.1,35.6c-2.8,7.5-3.3,15.9-1.5,23.7c2,8.5,6.7,16.3,13.4,21.9c6.4,5.5,14.5,8.9,22.9,9.6 C51.7,92,64,87.6,72.4,79.1c6.6-6.4,10.9-15.3,11.9-24.5C85.1,47.7,84.1,40.5,81.3,34z M83.6,53.1c-0.7,8.3-3.9,16.4-9.3,22.7 c-2.6,3.1-5.6,5.7-9,7.9c-6.9,4.5-15.1,6.7-23.3,6.4c-8.4-0.3-16.6-3.3-23.2-8.5C12,76.3,7,68.8,4.8,60.5 c-0.6-2.3-1-4.6-1.3-6.9c-0.3-3.5-0.1-6.9,0.4-10.3c1.5-8.7,5.9-16.8,12.4-22.8c5.8-5.4,13.3-9,21.1-10.1 c9.3-1.5,19.1,0.5,27.1,5.5c9.8,6,16.7,16.3,18.6,27.6c0.3,1.6,0.4,3.3,0.5,4.9C83.8,49.9,83.6,51.5,83.6,53.1z"></path> </g> <g> <path class="st2" d="M72.8,26.6c-1.2-1.6-2.7-2.9-4.1-4.4c-2.7-2.4-5.8-4.5-9.1-6.1c-6.3-3-13.5-4.2-20.5-3.4 c-7.9,0.9-15.5,4.4-21.3,9.8C11,29,6.7,38.1,6.1,47.5C5.4,57,8.5,66.7,14.7,74c1.1,1.3,2.2,2.6,3.5,3.7 c6.2,5.7,14.4,9.3,22.8,9.8c7.9,0.6,15.9-1.4,22.5-5.6C68.6,78.5,73,74,76,68.7c3.5-6.1,5.3-13.2,4.9-20.3 C80.7,40.5,77.8,32.7,72.8,26.6z M37.5,32.7c0.8-2.2,2.9-3.8,5.2-4.1c3.1-0.5,6.2,1.6,7.1,4.6c0.6,2.1,0.2,4.5-1.3,6.1 c-1,1.2-2.5,2-4,2.2c-2.5,0.4-5.2-0.8-6.5-3C36.9,36.8,36.7,34.6,37.5,32.7z M15.9,60.6c-0.8-0.2-1.7,0-2.4-0.5 c-0.7-0.4-1.1-1.2-1-2c0.2-2.3,0.3-4.6,0.5-6.9c0-0.8,0-1.7,0.7-2.3c0.8-0.9,2.1-0.7,3.1-0.6c-0.1,3.8-0.5,7.5-0.7,11.3 C16,60,15.9,60.3,15.9,60.6z M23.2,67.1c-1.6-0.1-3.4,0.1-4.8-0.8c-1.2-0.8-2-2.2-2-3.6c0.4-5.2,0.8-10.3,1.1-15.5 c0.1-1.5,0.8-3,2.1-3.8c1.2-0.8,2.6-0.7,4-0.6c0.5,0.1,0.9,0.1,1.4,0.1c-0.5,7.8-1.1,15.7-1.6,23.5 C23.3,66.6,23.3,66.9,23.2,67.1z M61.4,67.3c-1.2,2.5-4,4.2-6.7,4.1c-0.1-5.1-0.5-10.2-0.8-15.4c-0.2-0.9,0.1-1.8-0.3-2.7 c-2,4.3-4.1,8.5-6.2,12.8c-2.6,0-5.3,0-7.9,0c-2.1-4.4-4.2-8.7-6.3-13c0,3.3-0.4,6.5-0.4,9.7c-0.2,2.6-0.3,5.2-0.4,7.8 c0,0.3-0.1,0.5-0.1,0.8c-2,0-4-0.8-5.3-2.2c-1.4-1.4-2.1-3.4-2.1-5.3c0.2-2.9,0.5-5.8,0.7-8.7c0.3-3.2,0.5-6.4,0.7-9.7 c0.3-2.6,2-5,4.3-6.1c1.1-0.6,2.3-0.8,3.6-0.9c3.1,6.7,6.2,13.3,9.4,19.9c3.1-6.6,6.3-13.3,9.4-19.9c1.9,0.1,3.9,0.7,5.3,2.1 c1.5,1.3,2.4,3.3,2.6,5.3c0.3,4.5,0.7,9.1,1,13.6C62,62.1,62.7,64.9,61.4,67.3z M68.4,66.4c-1.4,0.8-3.1,0.7-4.7,0.7 c-0.3-5.9-0.8-11.7-1.2-17.6c-0.2-2.2-0.3-4.5-0.5-6.7c1.6,0.1,3.4-0.5,4.9,0.2c1.4,0.6,2.4,2,2.5,3.5c0.3,3.4,0.5,6.9,0.7,10.3 c0.1,2,0.4,3.9,0.3,5.9C70.6,64.3,69.6,65.6,68.4,66.4z M73.6,60.1c-0.7,0.5-1.7,0.3-2.5,0.5c-0.1-2-0.2-4.1-0.4-6.1 c0-2-0.4-4-0.3-6c0-0.1,0.1-0.2,0.2-0.2c0.9,0,1.8-0.2,2.6,0.3c0.6,0.4,0.9,1.2,0.9,1.9c0.2,2.5,0.4,4.9,0.5,7.4 C74.6,58.8,74.3,59.7,73.6,60.1z"></path> <path class="st1" d="M43.6,87.7c-0.9,0-1.8,0-2.7-0.1c-8.5-0.5-16.7-4-22.9-9.9c-1.1-0.9-2.1-2.1-3.1-3.2l-0.4-0.5 C8.3,66.8,5.2,57,5.9,47.5c0.5-9.4,4.9-18.6,11.9-25c5.8-5.5,13.4-9,21.4-9.9c7-0.8,14.3,0.4,20.6,3.4c3.3,1.5,6.3,3.6,9.1,6.1 c0.3,0.3,0.7,0.7,1,1c1.1,1.1,2.2,2.2,3.1,3.4c5,6.2,7.9,14,8.2,22c0.3,7-1.4,14.3-5,20.4c-3,5.3-7.4,9.9-12.7,13.2 C57.6,85.7,50.6,87.7,43.6,87.7z M43.4,12.7c-1.4,0-2.9,0.1-4.3,0.2c-7.8,0.9-15.4,4.4-21.1,9.8C11.1,29.2,6.9,38.2,6.3,47.5 C5.6,57,8.7,66.6,14.8,73.8l0.4,0.5c0.9,1.1,1.9,2.2,3,3.1c6.2,5.7,14.2,9.2,22.6,9.7c7.8,0.6,15.8-1.4,22.4-5.6 c5.2-3.3,9.5-7.8,12.5-13c3.5-6,5.2-13.2,4.9-20.2c-0.3-7.9-3.2-15.6-8.1-21.7c0,0,0,0,0,0c-0.9-1.2-2-2.3-3.1-3.4 c-0.3-0.3-0.7-0.6-1-1c-2.7-2.5-5.8-4.5-9-6C54.6,14,49,12.7,43.4,12.7z M32.3,71.7L32.3,71.7c-2.1,0-4.1-0.9-5.5-2.3 c-1.4-1.4-2.2-3.4-2.2-5.5c0.2-3,0.5-5.9,0.7-8.7c0.2-1.7,0.3-3.5,0.4-5.2c0.1-1.5,0.2-3,0.3-4.5c0.3-2.7,2-5.1,4.5-6.3 c1.2-0.7,2.6-0.8,3.7-0.9c0.1,0,0.2,0,0.2,0.1c2.3,5.1,4.8,10.2,7.1,15.2c0.7,1.4,1.4,2.9,2,4.3c1.4-3,2.9-6.1,4.3-9.1 c1.6-3.5,3.3-6.9,4.9-10.4c0-0.1,0.1-0.1,0.2-0.1c1.6,0.1,3.8,0.5,5.5,2.1c1.5,1.4,2.5,3.4,2.6,5.5c0.1,2,0.3,4,0.4,5.9 c0.2,2.5,0.4,5.1,0.6,7.6c0,0.6,0.1,1.2,0.1,1.7c0.2,2.1,0.4,4.3-0.6,6.2c-1.2,2.5-3.9,4.2-6.8,4.2c-0.1,0-0.1,0-0.2,0 c-0.1,0-0.2-0.1-0.2-0.2c-0.1-3-0.3-6-0.4-8.9c-0.1-2.1-0.3-4.3-0.3-6.5c-0.1-0.4-0.1-0.8-0.1-1.1c0-0.3,0-0.6,0-0.9 c-1.2,2.5-2.4,5.1-3.6,7.5c-0.8,1.6-1.5,3.1-2.3,4.7c0,0.1-0.1,0.1-0.2,0.1l0,0h-3.2c-1.6,0-3.2,0-4.8,0c-0.1,0-0.2,0-0.2-0.1 c-1-2.2-2.1-4.3-3.1-6.5c-0.9-1.9-1.9-3.8-2.8-5.7c0,1.4-0.1,2.8-0.2,4.2c-0.1,1.5-0.2,3-0.2,4.6c-0.2,2.5-0.3,5-0.4,7.8 c-0.1,0.3-0.1,0.5-0.1,0.8C32.5,71.6,32.4,71.7,32.3,71.7z M53.6,53.2C53.6,53.2,53.7,53.2,53.6,53.2c0.1,0,0.2,0.1,0.2,0.1 c0.2,0.5,0.2,1.1,0.2,1.6c0,0.4,0,0.7,0.1,1.1c0.1,2.2,0.2,4.4,0.3,6.5c0.2,2.8,0.3,5.8,0.4,8.7c2.7,0,5.2-1.6,6.3-4 c0,0,0,0,0,0c1-1.8,0.8-3.9,0.6-6c-0.1-0.6-0.1-1.2-0.1-1.7c-0.2-2.5-0.4-5.1-0.6-7.6c-0.2-2-0.3-4-0.4-5.9 c-0.1-2-1-3.9-2.5-5.2c-1.6-1.5-3.6-1.9-5-2c-1.6,3.4-3.2,6.8-4.9,10.3c-1.5,3.2-3,6.3-4.5,9.5c0,0.1-0.1,0.1-0.2,0.1l0,0 c-0.1,0-0.2,0-0.2-0.1c-0.7-1.6-1.5-3.2-2.2-4.7c-2.3-4.9-4.7-10-7.1-15c-1.4,0.1-2.5,0.4-3.3,0.8c-2.3,1.1-3.9,3.4-4.2,5.9 c-0.1,1.5-0.2,3-0.3,4.4c-0.1,1.7-0.3,3.5-0.4,5.2c-0.2,2.8-0.4,5.7-0.7,8.7c0,2,0.7,3.9,2.1,5.2c1.2,1.3,3.1,2.1,5,2.2 c0-0.2,0.1-0.4,0.1-0.6c0.1-2.7,0.2-5.3,0.4-7.7c0-1.5,0.1-3.1,0.2-4.6c0.1-1.7,0.2-3.4,0.2-5.2c0-0.1,0.1-0.2,0.2-0.2 c0.1,0,0.2,0,0.2,0.1c1,2.2,2.1,4.4,3.2,6.6c1,2.1,2.1,4.2,3.1,6.3c1.5,0,3.1,0,4.6,0h3c0.7-1.5,1.5-3.1,2.2-4.6 c1.3-2.6,2.6-5.4,3.9-8.1C53.5,53.2,53.6,53.2,53.6,53.2z M23.2,67.4C23.2,67.4,23.2,67.4,23.2,67.4c-0.3,0-0.6,0-1,0 c-1.4,0-2.7-0.1-3.9-0.8c-1.2-0.8-2-2.2-2.1-3.8c0.1-1.4,0.2-2.7,0.3-4c0.3-3.8,0.6-7.7,0.8-11.5c0.1-1.7,0.9-3.2,2.2-4 c1.1-0.8,2.5-0.7,3.7-0.7l0.4,0c0.4,0.1,0.8,0.1,1.2,0.1l0.2,0c0.1,0,0.1,0,0.2,0.1c0,0,0.1,0.1,0.1,0.2 c-0.3,4.5-0.6,9-0.9,13.4c-0.2,3.4-0.5,6.7-0.7,10.1c0,0.3-0.1,0.5-0.1,0.8C23.4,67.3,23.3,67.4,23.2,67.4z M22.1,42.9 c-0.9,0-1.7,0.1-2.4,0.6c-1.2,0.7-1.9,2-2,3.6c-0.2,3.8-0.5,7.7-0.8,11.5c-0.1,1.3-0.2,2.6-0.3,4c0.1,1.4,0.8,2.8,1.9,3.4 c1.1,0.7,2.4,0.7,3.7,0.8c0.3,0,0.5,0,0.8,0c0-0.2,0.1-0.4,0.1-0.5c0.2-3.4,0.5-6.7,0.7-10.1c0.3-4.3,0.6-8.8,0.9-13.2 c-0.4,0-0.8,0-1.2-0.1l-0.4,0C22.8,43,22.4,42.9,22.1,42.9z M63.7,67.3c-0.1,0-0.2-0.1-0.2-0.2c-0.2-3.4-0.4-6.9-0.7-10.2 c-0.2-2.4-0.4-4.9-0.5-7.3c-0.1-1-0.2-2-0.2-2.9c-0.1-1.2-0.2-2.5-0.3-3.7c0-0.1,0-0.1,0.1-0.2s0.1-0.1,0.2-0.1 c0.5,0,1.1,0,1.6-0.1c1.1-0.1,2.3-0.2,3.4,0.3c1.4,0.6,2.5,2.1,2.6,3.7c0.1,1.6,0.2,3.2,0.3,4.8c0.1,1.8,0.3,3.7,0.4,5.5 c0,0.8,0.1,1.6,0.2,2.5c0.1,1.1,0.2,2.3,0.2,3.5c0,1.4-0.8,2.9-2.2,3.7c0,0,0,0,0,0c-1.2,0.7-2.7,0.7-4,0.8 C64.2,67.3,64,67.3,63.7,67.3L63.7,67.3z M62.3,43.1c0.1,1.2,0.2,2.4,0.3,3.5c0.1,1,0.1,2,0.2,2.9c0.2,2.4,0.3,4.9,0.5,7.3 c0.2,3.3,0.5,6.7,0.7,10c0.2,0,0.4,0,0.6,0c1.3,0,2.7,0,3.8-0.7c1.2-0.8,2-2.1,2-3.4c0-1.1-0.1-2.3-0.2-3.4 c-0.1-0.8-0.1-1.6-0.2-2.5c-0.1-1.8-0.3-3.7-0.4-5.5c-0.1-1.6-0.2-3.2-0.3-4.8c-0.1-1.4-1.1-2.7-2.4-3.3c-1-0.5-2.1-0.4-3.2-0.3 C63.2,43.1,62.7,43.1,62.3,43.1z M68.4,66.4L68.4,66.4L68.4,66.4z M15.9,60.8C15.9,60.8,15.9,60.8,15.9,60.8 c-0.3-0.1-0.6-0.1-0.9-0.1c-0.6,0-1.1-0.1-1.6-0.4c-0.7-0.4-1.2-1.3-1.1-2.2c0.1-1.3,0.2-2.5,0.3-3.8c0.1-1,0.1-2.1,0.2-3.1 l0-0.1c0-0.8,0.1-1.8,0.8-2.4c0.8-0.9,2.1-0.7,3.1-0.6l0.2,0c0.1,0,0.2,0.1,0.2,0.2c-0.1,2.2-0.2,4.4-0.4,6.5 c-0.1,1.5-0.2,3.1-0.3,4.7c0,0.2,0,0.5-0.1,0.7l0,0.3c0,0.1,0,0.1-0.1,0.2C16,60.8,15.9,60.8,15.9,60.8z M15.4,48.5 c-0.6,0-1.2,0.1-1.6,0.6c-0.6,0.5-0.6,1.3-0.6,2.1l0,0.1c-0.1,1-0.2,2.1-0.2,3.1c-0.1,1.3-0.2,2.5-0.3,3.8 c0,0.7,0.4,1.4,0.9,1.8c0.4,0.3,0.9,0.3,1.4,0.3c0.2,0,0.5,0,0.7,0.1c0,0,0,0,0-0.1c0-0.2,0.1-0.4,0.1-0.7 c0.1-1.6,0.2-3.2,0.3-4.7c0.2-2.1,0.3-4.2,0.4-6.3C16.2,48.6,15.8,48.5,15.4,48.5z M71.1,60.8c-0.1,0-0.1,0-0.1,0 c-0.1,0-0.1-0.1-0.1-0.2c0-1.9-0.2-3.8-0.4-5.7l0-0.4c0-0.9-0.1-1.8-0.2-2.6c-0.1-1.1-0.2-2.2-0.2-3.3c0-0.1,0-0.1,0.1-0.1 l0.2-0.2c0,0,0.1-0.1,0.2-0.1c0.2,0,0.4,0,0.5,0c0.7,0,1.5-0.1,2.2,0.4c0.6,0.4,1,1.2,1,2.1c0.1,0.8,0.1,1.6,0.2,2.4 c0.1,1.6,0.2,3.3,0.3,5c0.1,0.8-0.2,1.9-1.1,2.4c-0.5,0.4-1.2,0.4-1.8,0.4C71.6,60.8,71.4,60.8,71.1,60.8 C71.1,60.8,71.1,60.8,71.1,60.8z M70.6,48.6c0,1.1,0.1,2.2,0.2,3.2c0.1,0.9,0.1,1.8,0.2,2.7l0,0.4c0.1,1.8,0.3,3.6,0.4,5.5 c0.2,0,0.4,0,0.6,0c0.6,0,1.1-0.1,1.5-0.4c0,0,0,0,0,0c0.7-0.4,0.9-1.3,0.9-2c-0.1-1.7-0.2-3.4-0.3-5c-0.1-0.8-0.1-1.6-0.2-2.4 c0-0.7-0.3-1.4-0.8-1.7c-0.5-0.4-1.2-0.4-1.9-0.3C70.9,48.6,70.8,48.6,70.6,48.6L70.6,48.6z M43.5,41.8c-2.3,0-4.5-1.2-5.7-3.2 c-1.1-1.7-1.3-4-0.5-6c0.9-2.2,3-3.9,5.4-4.2c3.2-0.5,6.5,1.6,7.3,4.7c0.7,2.1,0.1,4.6-1.3,6.3c-1,1.2-2.5,2-4.1,2.3 C44.2,41.8,43.8,41.8,43.5,41.8z M43.6,28.8c-0.3,0-0.6,0-0.9,0.1c-2.3,0.3-4.2,1.8-5,3.9v0c-0.7,1.9-0.5,4,0.5,5.6 c1.3,2.1,3.8,3.3,6.3,2.9c1.5-0.2,2.9-1,3.9-2.1c1.4-1.6,1.9-3.9,1.2-5.9C48.8,30.6,46.2,28.8,43.6,28.8z M37.5,32.7L37.5,32.7 L37.5,32.7z"></path> </g> </g> </g> <g> <g> <path class="st0" d="M95.4,45.8l2.1-3.7c0.4-0.6,1.2-0.5,1.5-0.3c0.2,0.1,3.4,2.5,6.3,2.5c1.8,0,3.1-1.1,3.1-2.7 c0-1.9-1.6-3.3-4.6-4.5c-3.8-1.5-8.7-4.5-8.7-9.9c0-4.4,3.4-8.9,10.3-8.9c4.6,0,8.2,2.4,9.5,3.3c0.5,0.3,0.4,1.1,0.3,1.4 l-2.3,3.4c-0.3,0.5-1.1,0.9-1.5,0.6c-0.4-0.2-3.7-2.7-6.4-2.7c-1.6,0-2.8,1.1-2.8,2.3c0,1.7,1.3,2.9,4.9,4.3 c3.5,1.4,9,4.1,9,10.2c0,4.6-4,9.2-10.5,9.2c-5.8,0-9-2.4-10-3.4C95.2,46.6,95.1,46.4,95.4,45.8z"></path> <path class="st0" d="M123,25.3h-6.4c-0.5,0-0.8-0.4-0.8-0.8v-4.9c0-0.4,0.4-0.8,0.8-0.8h19.8c0.5,0,0.8,0.4,0.8,0.8v4.9 c0,0.4-0.4,0.8-0.8,0.8h-6.4v23.8c0,0.4-0.4,0.8-0.8,0.8h-5.4c-0.4,0-0.8-0.4-0.8-0.8V25.3z"></path> <path class="st0" d="M139.1,19.6c0-0.4,0.4-0.8,0.8-0.8h13.3c5.4,0,9.7,4.3,9.7,9.6c0,4.1-2.7,7.4-6.6,9l6.1,11.3 c0.3,0.6,0,1.3-0.8,1.3h-5.9c-0.4,0-0.6-0.2-0.7-0.4l-5.9-11.8h-3.1v11.4c0,0.4-0.4,0.8-0.8,0.8h-5.3c-0.5,0-0.8-0.4-0.8-0.8 V19.6z M152.7,32.1c1.8,0,3.4-1.7,3.4-3.6c0-1.9-1.6-3.4-3.4-3.4h-6.6v7H152.7z"></path> <path class="st0" d="M166.3,19.6c0-0.4,0.4-0.8,0.8-0.8h18.5c0.5,0,0.8,0.4,0.8,0.8v4.9c0,0.4-0.4,0.8-0.8,0.8h-12.4v5.5h10.2 c0.4,0,0.8,0.4,0.8,0.8v4.9c0,0.5-0.4,0.8-0.8,0.8h-10.2v6h12.4c0.5,0,0.8,0.4,0.8,0.8v4.9c0,0.4-0.4,0.8-0.8,0.8h-18.5 c-0.5,0-0.8-0.4-0.8-0.8V19.6z"></path> <path class="st0" d="M189.7,19.1c0-0.4,0.4-0.8,0.8-0.8h1.1l17.8,17.1h0V19.6c0-0.4,0.4-0.8,0.8-0.8h5.4c0.4,0,0.8,0.4,0.8,0.8 v30c0,0.4-0.4,0.8-0.8,0.8H215c-0.1,0-0.5-0.1-0.6-0.2l-17.6-17.7h0v16.6c0,0.4-0.4,0.8-0.8,0.8h-5.3c-0.4,0-0.8-0.4-0.8-0.8 L189.7,19.1z"></path> <path class="st0" d="M235.4,18.4c3.7,0,7.9,1.6,10.9,4.2c0.4,0.3,0.4,0.8,0.1,1.2l-3.5,3.7c-0.4,0.3-0.8,0.3-1.2,0 c-1.7-1.6-3.7-2.1-5.8-2.1c-4.9,0-8.8,4.1-8.8,9c0,4.9,4,8.9,8.8,8.9c1.3,0,2.6-0.2,4-0.7V40H237c-0.5,0-0.8-0.4-0.8-0.8v-4.4 c0-0.5,0.4-0.8,0.8-0.8h9c0.4,0,0.8,0.4,0.8,0.8l0,12c0,0.2-0.2,0.6-0.4,0.7c0,0-4.6,2.9-11.1,2.9c-8.9,0-16-7.1-16-16 C219.4,25.5,226.5,18.4,235.4,18.4z"></path> <path class="st0" d="M254.3,25.3h-6.4c-0.5,0-0.8-0.4-0.8-0.8v-4.9c0-0.4,0.4-0.8,0.8-0.8h19.8c0.5,0,0.8,0.4,0.8,0.8v4.9 c0,0.4-0.4,0.8-0.8,0.8h-6.4v23.8c0,0.4-0.4,0.8-0.8,0.8h-5.4c-0.4,0-0.8-0.4-0.8-0.8V25.3z"></path> <path class="st0" d="M270.3,19.6c0-0.4,0.4-0.8,0.8-0.8h5.3c0.5,0,0.8,0.4,0.8,0.8v11.2h12.8V19.6c0-0.4,0.4-0.8,0.8-0.8h5.3 c0.4,0,0.8,0.4,0.8,0.8v29.5c0,0.4-0.4,0.8-0.8,0.8h-5.3c-0.5,0-0.8-0.4-0.8-0.8V37.4h-12.8v11.7c0,0.4-0.4,0.8-0.8,0.8h-5.3 c-0.4,0-0.8-0.4-0.8-0.8V19.6z"></path> </g> <g> <path class="st0" d="M99.6,57.3c0.1-0.3,0.4-0.6,0.7-0.6h0.6c0.2,0,0.6,0.2,0.7,0.4l8.1,19.8h0.2l8-19.8c0.1-0.2,0.4-0.4,0.7-0.4 h0.6c0.3,0,0.6,0.3,0.7,0.6l4.8,26c0.1,0.5-0.2,0.9-0.7,0.9h-2.5c-0.3,0-0.7-0.3-0.7-0.5l-2.9-17.3c0,0-0.1,0-0.1,0l-7,17.8 c-0.1,0.2-0.3,0.4-0.7,0.4h-0.7c-0.3,0-0.6-0.2-0.7-0.4l-7-17.8c0,0-0.1,0-0.2,0l-2.8,17.3c0,0.3-0.4,0.5-0.7,0.5h-2.5 c-0.5,0-0.8-0.3-0.7-0.9L99.6,57.3z"></path> <path class="st0" d="M144.3,57.9c0-0.4,0.3-0.7,0.7-0.7h15.5c0.4,0,0.7,0.3,0.7,0.7V60c0,0.4-0.3,0.7-0.7,0.7h-12.2v7.9h10.3 c0.4,0,0.7,0.3,0.7,0.7v2.2c0,0.4-0.3,0.7-0.7,0.7h-10.3v8.3h12.2c0.4,0,0.7,0.3,0.7,0.7v2.1c0,0.4-0.3,0.7-0.7,0.7H145 c-0.4,0-0.7-0.3-0.7-0.7V57.9z"></path> <path class="st0" d="M184.7,60.8h-6.3c-0.4,0-0.7-0.3-0.7-0.7v-2.2c0-0.4,0.3-0.7,0.7-0.7H195c0.4,0,0.7,0.3,0.7,0.7V60 c0,0.4-0.3,0.7-0.7,0.7h-6.3v22.7c0,0.4-0.3,0.7-0.7,0.7h-2.6c-0.4,0-0.7-0.3-0.7-0.7V60.8z"></path> <path class="st0" d="M213.9,57.9c0-0.4,0.3-0.7,0.7-0.7h10.5c4.6,0,8.4,3.7,8.4,8.3c0,3.6-2.4,6.5-5.7,7.9l5.3,9.8 c0.3,0.5,0,1.1-0.7,1.1h-3c-0.3,0-0.5-0.2-0.6-0.3l-5.1-10.3h-5.8v9.9c0,0.4-0.3,0.7-0.7,0.7h-2.5c-0.4,0-0.7-0.3-0.7-0.7V57.9z M224.8,70.3c2.5,0,4.7-2.1,4.7-4.8c0-2.5-2.2-4.6-4.7-4.6h-6.9v9.4H224.8z"></path> <path class="st0" d="M253.5,57.9c0-0.4,0.3-0.7,0.7-0.7h2.6c0.4,0,0.7,0.3,0.7,0.7v25.6c0,0.4-0.3,0.7-0.7,0.7h-2.6 c-0.4,0-0.7-0.3-0.7-0.7V57.9z"></path> <path class="st0" d="M284.6,70.3l-7.7-12.1c-0.3-0.5,0-1.1,0.7-1.1h3.3c0.3,0,0.5,0.2,0.7,0.3l5.5,9.2h0l5.5-9.2 c0.1-0.2,0.3-0.3,0.6-0.3h3.3c0.7,0,1,0.6,0.7,1.1l-7.7,12.1l7.9,12.8c0.3,0.5,0,1.1-0.7,1.1h-3c-0.3,0-0.6-0.2-0.7-0.3L287,74 h-0.1l-6,9.9c-0.1,0.2-0.3,0.3-0.7,0.3h-3c-0.7,0-1-0.6-0.7-1.1L284.6,70.3z"></path> </g> </g> </g> </svg> 