<?xml version="1.0" encoding="UTF-8"?> <!-- Generator: Adobe Illustrator 19.2.1, SVG Export Plug-In . SVG Version: 6.00 Build 0) --> <svg xmlns="http://www.w3.org/2000/svg" xmlns:xlink="http://www.w3.org/1999/xlink" id="Layer_1" x="0px" y="0px" width="800px" height="600px" viewBox="0 0 800 600" style="enable-background:new 0 0 800 600;" xml:space="preserve"> <style type="text/css"> .st0{fill:#1B1A1B;} .st1{fill:#FFFFFF;} .st2{fill:#B92025;} </style> <g> <g> <g> <path class="st0" d="M551.4,153.7c-0.2-6.2-0.9-12.4-1.9-18.5c-6.9-42.7-33.2-81.7-70.1-104.2c-30.2-18.8-67.2-26.4-102.3-20.9 c-29.6,4.4-57.7,18-79.8,38.3c-24.5,22.5-41.4,53.2-47,86c-2.2,12.9-2.7,26-1.6,39.1c1,8.8,2.4,17.7,4.8,26.2 c8.5,31.3,27.3,59.7,52.9,79.6c24.8,19.6,56,31,87.6,32.3c30.9,1.2,62.1-7.2,88-24.1c12.7-8.2,24.2-18.3,33.9-29.9 c20.4-24,32.8-54.5,35.3-85.8C551.3,165.7,552.2,159.7,551.4,153.7z"></path> </g> <g> <g> <g> <path class="st0" d="M324.6,132.7c-5.1-0.2-10.6-0.9-15,2.3c-5,3-7.5,8.7-7.8,14.4c-1.2,19.5-2.6,38.9-4,58.4 c0.3,5.4,2.9,10.9,7.6,13.8c5.3,3.5,12,2.8,18,3.2c0.2-0.9,0.3-1.9,0.4-2.8c1.9-29.6,4.3-59.2,6-88.9 C328.1,133,326.3,133.1,324.6,132.7z"></path> </g> <g> <path class="st1" d="M323.4,225.6C323.4,225.6,323.3,225.6,323.4,225.6c-1.2-0.1-2.4-0.1-3.7-0.1c-5.1-0.1-10.4-0.3-14.8-3.2 c-4.7-2.9-7.7-8.4-8-14.4c0.4-5.1,0.7-10.1,1.1-15.1c1-14.2,2.1-28.9,2.9-43.4c0.4-6.6,3.5-12.2,8.2-15 c4.1-2.9,9.3-2.7,13.9-2.5l1.6,0.1c0.1,0,0.1,0,0.2,0c1.4,0.3,2.8,0.3,4.3,0.3l0.8,0c0.2,0,0.5,0.1,0.6,0.3 c0.2,0.2,0.2,0.4,0.2,0.6c-1,16.9-2.2,34.2-3.4,50.8c-0.9,12.7-1.8,25.4-2.6,38.1c-0.1,1-0.2,2-0.4,2.9 C324.1,225.3,323.8,225.6,323.4,225.6z M319.1,133.3c-3.3,0-6.4,0.4-9.1,2.3c-4.4,2.6-7.1,7.7-7.5,13.7 c-0.9,14.5-1.9,29.2-2.9,43.4c-0.4,5-0.7,10-1.1,15c0.3,5.4,3,10.4,7.2,13c4.1,2.7,9.1,2.8,14,2.9c1,0,2,0.1,2.9,0.1 c0.1-0.7,0.2-1.4,0.3-2c0.8-12.7,1.7-25.4,2.6-38.1c1.2-16.4,2.4-33.2,3.4-49.9c-1.5,0-3,0-4.5-0.3l-1.5-0.1 C321.7,133.4,320.4,133.3,319.1,133.3z"></path> </g> </g> <g> <g> <path class="st0" d="M498,147.1c-0.6-5.6-4.3-10.8-9.5-13.1c-5.8-2.9-12.4-0.7-18.6-0.9c0.9,8.4,1.2,16.9,1.9,25.3 c1.4,22.1,3.3,44.2,4.5,66.4c6-0.2,12.5,0.3,17.9-2.8c4.6-2.9,8-7.9,7.9-13.5c0.1-7.4-1-14.8-1.3-22.2 C499.7,173.2,499,160.1,498,147.1z"></path> </g> <g> <path class="st1" d="M476.2,225.5c-0.4,0-0.8-0.3-0.8-0.8c-0.7-12.9-1.6-26-2.5-38.7c-0.7-9.1-1.3-18.4-1.9-27.7 c-0.3-3.7-0.6-7.4-0.8-11.1c-0.3-4.6-0.6-9.4-1.1-14.1c0-0.2,0.1-0.5,0.2-0.7c0.2-0.2,0.4-0.3,0.6-0.3c1.9,0.1,4-0.1,6.1-0.3 c4.3-0.4,8.8-0.7,12.9,1.3c5.4,2.4,9.3,7.8,9.9,13.8c0,0,0,0,0,0c0.5,6.1,0.9,12.1,1.3,18.2c0.5,7,1,13.9,1.5,20.9 c0.1,3.1,0.4,6.2,0.6,9.3c0.3,4.3,0.7,8.7,0.7,13.1c0.1,5.4-3.1,10.9-8.3,14.2c-4.7,2.7-10.1,2.8-15.3,2.9 C478.2,225.5,477.3,225.5,476.2,225.5C476.3,225.5,476.3,225.5,476.2,225.5z M470.8,133.9c0.4,4.4,0.7,8.9,1,13.2 c0.2,3.7,0.5,7.4,0.8,11.1c0.6,9.2,1.3,18.6,1.9,27.7c0.9,12.4,1.8,25.3,2.5,37.9c0.7,0,1.4,0,2.2,0c5-0.1,10.1-0.2,14.5-2.6 c4.6-2.9,7.6-7.9,7.5-12.7c0-4.3-0.3-8.7-0.7-12.9c-0.2-3-0.5-6.2-0.6-9.3c-0.5-6.9-1-13.9-1.5-20.9 c-0.4-6.1-0.8-12.1-1.3-18.2c-0.6-5.4-4.1-10.3-9-12.4c-3.7-1.8-7.8-1.5-12-1.1C474.4,133.7,472.6,133.9,470.8,133.9z"></path> </g> </g> <g> <g> <path class="st0" d="M465.4,144.7c-0.5-7.6-4-15.1-9.7-20.1c-5.4-5.1-12.8-7.5-20.1-7.9c-11.9,25.1-23.7,50.2-35.6,75.3 c-11.8-25.1-23.8-50.1-35.4-75.3c-4.6,0.3-9.4,1.1-13.5,3.3c-8.9,4.2-15.3,13.3-16.4,23c-1,12.2-1.8,24.4-2.8,36.5 c-0.7,11-1.5,21.9-2.5,32.8c0,7.4,2.7,14.9,8,20.2c5.1,5.5,12.6,8.4,20,8.5c0.1-1,0.3-2,0.4-2.9c0.4-9.8,0.8-19.6,1.6-29.4 c0.3-12.3,1.5-24.5,1.7-36.8c7.8,16.5,16,32.7,23.8,49.2c10,0,20,0,29.9,0c7.7-16.1,15.8-32.1,23.3-48.3 c1.2,3.2,0.3,6.8,1,10.1c0.8,19.4,2.3,38.7,2.9,58.1c10.5,0.2,20.9-5.9,25.4-15.5c4.8-9.1,2.2-19.7,1.7-29.5 C468,178.9,466.6,161.8,465.4,144.7z"></path> </g> <g> <path class="st1" d="M357.5,241.8C357.5,241.8,357.5,241.8,357.5,241.8c-8-0.1-15.5-3.3-20.6-8.7c-5.2-5.1-8.3-12.7-8.2-20.8 c0.9-11.3,1.8-22.3,2.5-32.9c0.6-6.6,1.1-13.2,1.5-19.7c0.4-5.6,0.8-11.2,1.3-16.8c1.1-10.1,7.7-19.5,16.8-23.7 c4.6-2.5,9.8-3.1,13.8-3.4c0.4,0,0.7,0.2,0.8,0.5c8.8,19.2,18,38.6,26.9,57.3c2.6,5.4,5.2,10.9,7.7,16.3 c5.4-11.4,10.8-22.9,16.2-34.4c6.2-13.1,12.4-26.2,18.6-39.3c0.1-0.3,0.4-0.5,0.8-0.5c5.9,0.3,14.2,2,20.7,8.1 c5.8,5.2,9.5,12.7,10,20.7c0.5,7.5,1.1,15,1.7,22.5c0.7,9.6,1.5,19.2,2.1,28.9c0.1,2.1,0.3,4.4,0.5,6.5 c0.8,7.9,1.6,16.1-2.3,23.4c-4.5,9.6-14.7,15.9-25.6,15.9c-0.2,0-0.4,0-0.6,0c-0.4,0-0.8-0.4-0.8-0.8 c-0.3-11.2-0.9-22.5-1.6-33.5c-0.5-8.1-0.9-16.4-1.3-24.6c-0.3-1.4-0.3-2.9-0.3-4.3c0-1.1,0-2.3-0.1-3.3 c-4.4,9.5-9.1,19.1-13.7,28.4c-2.9,5.9-5.8,11.8-8.7,17.8c-0.1,0.3-0.4,0.5-0.8,0.5l0,0h-12c-6,0-12,0-18,0 c-0.3,0-0.6-0.2-0.8-0.5c-3.9-8.2-7.9-16.4-11.8-24.4c-3.5-7.1-7-14.3-10.5-21.6c-0.1,5.4-0.5,10.8-0.8,16 c-0.3,5.7-0.7,11.5-0.8,17.3c-0.7,9.4-1.2,18.9-1.6,29.4c-0.2,1.1-0.3,2-0.5,3C358.3,241.5,357.9,241.8,357.5,241.8z M438.3,172C438.3,172,438.3,172,438.3,172c0.4,0,0.7,0.2,0.8,0.5c0.8,2,0.8,4.1,0.8,6.2c0,1.4,0,2.8,0.2,4.1 c0.4,8.3,0.8,16.6,1.3,24.7c0.6,10.7,1.3,21.8,1.6,32.7c10-0.1,19.7-6.2,23.8-15c3.7-6.9,2.9-14.9,2.1-22.5 c-0.2-2.2-0.4-4.4-0.5-6.6c-0.6-9.6-1.4-19.2-2.1-28.8c-0.6-7.5-1.1-15-1.7-22.5c0,0,0,0,0,0c-0.5-7.5-3.9-14.7-9.4-19.6 c-5.9-5.6-13.5-7.3-19.1-7.6c-6.1,12.9-12.2,25.9-18.3,38.8c-5.7,12-11.3,24-17,36c-0.1,0.3-0.4,0.5-0.8,0.5l0,0 c-0.3,0-0.6-0.2-0.8-0.5c-2.8-6-5.7-12-8.5-17.9c-8.8-18.6-17.9-37.8-26.7-56.8c-5.4,0.4-9.3,1.4-12.6,3.1 c-8.7,4-14.9,12.8-15.9,22.4c-0.5,5.6-0.9,11.2-1.3,16.8c-0.5,6.5-1,13.1-1.5,19.7c-0.7,10.6-1.5,21.6-2.5,32.8 c0,7.5,2.8,14.7,7.8,19.5c4.6,4.9,11.5,8,18.7,8.2c0.1-0.7,0.2-1.5,0.4-2.2c0.4-10.4,0.8-19.9,1.6-29.3 c0.1-5.7,0.5-11.6,0.8-17.3c0.4-6.4,0.8-13,0.9-19.5c0-0.4,0.3-0.7,0.7-0.8c0.4-0.1,0.8,0.1,0.9,0.5c3.9,8.3,8,16.7,12,24.8 c3.8,7.8,7.8,15.9,11.6,23.9c5.8,0,11.6,0,17.4,0h11.5c2.8-5.8,5.6-11.5,8.4-17.3c4.9-10,9.9-20.3,14.7-30.5 C437.6,172.2,437.9,172,438.3,172z"></path> </g> </g> <g> <g> <path class="st0" d="M287.1,156.1c-2.4,2.2-2.5,5.7-2.6,8.8c-0.7,8.7-1.2,17.4-1.9,26.1c-0.1,2.9,1.4,6,4,7.5 c2.6,1.8,6,1,9,1.7c0.2-1.2,0.4-2.4,0.5-3.6c0.8-14.2,2.2-28.3,2.8-42.5C294.9,153.6,290.1,152.8,287.1,156.1z"></path> </g> <g> <path class="st1" d="M295.6,201c-0.1,0-0.1,0-0.2,0c-1-0.2-2.1-0.3-3.2-0.3c-2.1-0.1-4.2-0.2-6.1-1.5c-2.7-1.5-4.4-4.8-4.3-8.2 c0.4-4.8,0.7-9.6,1.1-14.4c0.3-3.9,0.5-7.8,0.8-11.8l0-0.2c0.1-3.1,0.2-6.7,2.8-9.1c3.1-3.4,7.8-2.8,11.6-2.4l0.7,0.1 c0.4,0,0.8,0.4,0.7,0.9c-0.3,8.3-0.9,16.6-1.5,24.7c-0.4,5.8-0.9,11.9-1.2,17.8c0,0.9-0.2,1.8-0.3,2.6l-0.2,1.1 c0,0.2-0.2,0.4-0.4,0.6C295.9,200.9,295.8,201,295.6,201z M293.9,154.4c-2.3,0-4.6,0.5-6.1,2.2c0,0,0,0-0.1,0.1 c-2.1,1.9-2.2,5-2.3,8l0,0.3c-0.3,4-0.6,7.9-0.8,11.8c-0.3,4.8-0.7,9.6-1.1,14.3c-0.1,2.7,1.4,5.4,3.5,6.7 c1.5,1.1,3.4,1.2,5.3,1.2c0.9,0,1.7,0.1,2.6,0.2c0-0.1,0-0.1,0-0.2c0.1-0.8,0.3-1.6,0.3-2.5c0.3-6,0.8-12,1.2-17.8 c0.6-7.8,1.2-15.9,1.5-23.9C296.6,154.6,295.2,154.4,293.9,154.4z M287.1,156.1L287.1,156.1L287.1,156.1z"></path> </g> </g> <g> <g> <path class="st0" d="M403.6,127.8c5.8-0.8,11.3-3.8,15.1-8.3c5.4-6.2,7.2-15.3,4.8-23.1c-3.1-11.3-15.1-19-26.7-17.2 c-8.7,1.1-16.5,7.1-19.7,15.3c-2.8,7.1-2.2,15.5,2,22C384,124.8,394.2,129.4,403.6,127.8z"></path> </g> <g> <path class="st1" d="M399.9,129c-8.6,0-17.1-4.6-21.5-12c-4.2-6.5-4.9-15.2-2-22.7c3.3-8.5,11.2-14.7,20.3-15.9 c12-1.8,24.4,6.2,27.6,17.8c2.5,8.1,0.6,17.5-5,23.9c-3.8,4.6-9.5,7.7-15.6,8.6C402.5,128.9,401.2,129,399.9,129z M400.1,79.8 c-1.1,0-2.2,0.1-3.2,0.2c-8.5,1.1-16,6.9-19,14.8c-2.7,7-2,15.2,1.9,21.3c4.8,8,14.5,12.5,23.7,10.9c0,0,0,0,0,0 c5.6-0.8,10.9-3.7,14.5-8c5.2-6,7-14.8,4.7-22.4C420,86.8,410.3,79.8,400.1,79.8z"></path> </g> </g> <g> <path class="st0" d="M511.7,155c-2.8-2.1-6.5-1.3-9.7-1.3c-0.2,0.2-0.5,0.6-0.7,0.8c-0.2,7.5,1.1,15,1.2,22.5 c0.6,7.7,1.3,15.4,1.5,23.1c3.2-0.6,6.7,0.1,9.4-1.8c2.9-1.5,4-5.1,3.7-8.2c-0.5-9.3-1.2-18.6-1.9-27.9 C515.2,159.4,514.1,156.6,511.7,155z"></path> </g> <g> <path class="st2" d="M542.8,99.6C532,73.8,514,51.2,491.4,34.8C467.2,17,437.7,6.6,407.7,5.2c-33.1-1.7-66.7,7.4-94.1,26.1 c-26.8,17.8-47.7,44.3-58.9,74.5c-10.6,28.4-12.5,59.9-5.7,89.5c7.4,32.1,25.4,61.6,50.5,82.8c24.2,20.6,54.8,33.6,86.5,36.2 c44.8,4.4,91.3-12.1,122.9-44.2c25.1-24.4,41.2-57.7,45-92.4C557,151.3,553.1,124.1,542.8,99.6z M551.3,171.8 c-2.5,31.3-14.9,61.8-35.3,85.8c-9.7,11.6-21.2,21.7-33.9,29.9c-25.9,16.9-57.2,25.4-88,24.1c-31.6-1.2-62.8-12.6-87.6-32.3 c-25.6-19.9-44.4-48.4-52.9-79.6c-2.4-8.6-3.7-17.4-4.8-26.2c-1.1-13-0.5-26.2,1.6-39.1c5.6-32.8,22.5-63.5,47-86 c22-20.2,50.2-33.9,79.8-38.3c35.1-5.5,72.1,2.1,102.3,20.9c36.9,22.5,63.2,61.5,70.1,104.2c1,6.1,1.7,12.3,1.9,18.5 C552.3,159.7,551.4,165.7,551.3,171.8z"></path> </g> <g> <path class="st2" d="M510.6,71.4c-4.5-6-10.1-11.1-15.4-16.4c-10.2-9.2-21.8-17.1-34.3-23c-23.9-11.4-51.1-15.8-77.4-12.7 c-29.8,3.3-58.4,16.6-80.3,37.2c-26,24.2-42.4,58.5-44.5,94c-2.6,35.8,9.1,72.5,32.2,100c4.2,4.8,8.2,9.8,13.2,13.8 c23.3,21.7,54.2,35,86,37c29.7,2.2,60-5.3,85.1-21.2c19.5-12.3,36.1-29.4,47.6-49.4c13.4-23.1,19.9-50,18.7-76.6 C540.4,124.1,529.4,94.7,510.6,71.4z M377.1,94.5c3.2-8.2,11-14.2,19.7-15.3c11.6-1.8,23.6,6,26.7,17.2 c2.4,7.9,0.6,16.9-4.8,23.1c-3.8,4.5-9.3,7.5-15.1,8.3c-9.5,1.6-19.6-3.1-24.6-11.3C374.9,110.1,374.3,101.6,377.1,94.5z M295.6,200.1c-3-0.7-6.4,0.1-9-1.7c-2.6-1.5-4-4.6-4-7.5c0.7-8.7,1.2-17.4,1.9-26.1c0.1-3.1,0.1-6.6,2.6-8.8 c3-3.3,7.8-2.5,11.7-2.1c-0.5,14.2-2,28.3-2.8,42.5C296,197.7,295.8,198.9,295.6,200.1z M323.4,224.7c-6.1-0.4-12.7,0.3-18-3.2 c-4.7-2.9-7.4-8.4-7.6-13.8c1.4-19.5,2.9-38.9,4-58.4c0.3-5.6,2.8-11.4,7.8-14.4c4.4-3.1,10-2.5,15-2.3c1.7,0.4,3.5,0.3,5.3,0.3 c-1.7,29.6-4.1,59.2-6,88.9C323.7,222.9,323.6,223.8,323.4,224.7z M467.5,225.5c-4.5,9.6-14.9,15.7-25.4,15.5 c-0.5-19.4-2.1-38.7-2.9-58.1c-0.6-3.4,0.3-6.9-1-10.1c-7.5,16.2-15.6,32.2-23.3,48.3c-10,0-20,0-29.9,0 c-7.8-16.5-16-32.7-23.8-49.2c-0.1,12.3-1.4,24.5-1.7,36.8c-0.8,9.8-1.2,19.6-1.6,29.4c-0.2,1-0.3,1.9-0.4,2.9 c-7.4-0.1-14.9-3-20-8.5c-5.3-5.2-8-12.8-8-20.2c0.9-10.9,1.7-21.9,2.5-32.8c1.1-12.1,1.8-24.3,2.8-36.5 c1.1-9.8,7.4-18.9,16.4-23c4.1-2.2,8.9-3,13.5-3.3c11.6,25.2,23.6,50.2,35.4,75.3c11.9-25.1,23.7-50.2,35.6-75.3 c7.3,0.4,14.7,2.7,20.1,7.9c5.7,5.1,9.2,12.5,9.7,20.1c1.2,17.1,2.6,34.2,3.8,51.3C469.7,205.8,472.3,216.4,467.5,225.5z M494.1,221.9c-5.4,3.1-11.9,2.6-17.9,2.8c-1.2-22.1-3.1-44.2-4.5-66.4c-0.7-8.4-1-16.9-1.9-25.3c6.2,0.3,12.8-1.9,18.6,0.9 c5.2,2.3,8.9,7.5,9.5,13.1c1,13,1.8,26.1,2.8,39.1c0.3,7.4,1.3,14.8,1.3,22.2C502.2,213.9,498.7,219,494.1,221.9z M513.5,198.3 c-2.8,1.9-6.3,1.2-9.4,1.8c-0.2-7.7-0.9-15.4-1.5-23.1c-0.1-7.5-1.4-15-1.2-22.5c0.2-0.2,0.5-0.6,0.7-0.8c3.2,0,6.9-0.8,9.7,1.3 c2.4,1.5,3.5,4.4,3.6,7.1c0.6,9.3,1.4,18.6,1.9,27.9C517.5,193.2,516.4,196.8,513.5,198.3z"></path> <path class="st1" d="M400.4,302.5c-3.5,0-6.9-0.1-10.4-0.4c-32.2-2.1-63-15.3-86.5-37.2c-4.3-3.5-8-7.8-11.6-11.9l-1.7-1.9 c-23.3-27.8-35.1-64.4-32.4-100.6c2.1-35.6,18.4-70.1,44.8-94.6c22.1-20.8,50.8-34,80.8-37.4c26.4-3.1,54.1,1.5,77.9,12.8 c12.3,5.8,23.9,13.6,34.5,23.1c1.2,1.3,2.5,2.5,3.7,3.7c4.1,4,8.3,8.2,11.8,12.9c19,23.5,30,53.1,31.1,83.1 c1.2,26.6-5.4,54-18.8,77.1c-11.5,20.1-28.1,37.2-47.9,49.7C453.2,294.9,426.8,302.5,400.4,302.5z M399.7,19.2 c-5.4,0-10.8,0.3-16.1,0.9c-29.6,3.3-58,16.5-79.8,37c-26.1,24.2-42.2,58.3-44.3,93.5c-2.6,35.8,9,72,32,99.4l1.7,1.9 c3.5,4.1,7.2,8.3,11.4,11.8c23.3,21.7,53.6,34.8,85.5,36.8c29.6,2.2,59.6-5.3,84.6-21.1c19.6-12.3,35.9-29.3,47.3-49.1 c13.2-22.8,19.8-49.9,18.6-76.2c-1.1-29.7-12-58.9-30.7-82.1c0,0,0,0,0,0c-3.5-4.6-7.6-8.7-11.7-12.7c-1.2-1.2-2.5-2.4-3.7-3.7 c-10.4-9.4-21.8-17-34-22.8C441.8,23.8,420.7,19.2,399.7,19.2z M357.5,241.8C357.5,241.8,357.5,241.8,357.5,241.8 c-8-0.1-15.5-3.3-20.6-8.7c-5.2-5.1-8.3-12.7-8.2-20.8c0.9-11.3,1.8-22.3,2.5-32.9c0.6-6.6,1.1-13.2,1.5-19.7 c0.4-5.6,0.8-11.2,1.3-16.8c1.1-10.1,7.7-19.5,16.8-23.7c4.6-2.5,9.8-3.1,13.8-3.4c0.4,0,0.7,0.2,0.8,0.5 c8.8,19.2,18,38.6,26.9,57.3c2.6,5.4,5.2,10.9,7.7,16.3c5.4-11.4,10.8-22.9,16.2-34.4c6.2-13.1,12.4-26.2,18.6-39.3 c0.1-0.3,0.4-0.5,0.8-0.5c5.9,0.3,14.2,2,20.7,8.1c5.8,5.2,9.5,12.7,10,20.7c0.5,7.5,1.1,15,1.7,22.5c0.7,9.6,1.5,19.2,2.1,28.9 c0.1,2.1,0.3,4.4,0.5,6.5c0.8,7.9,1.6,16.1-2.3,23.4c-4.5,9.6-14.7,15.9-25.6,15.9c-0.2,0-0.4,0-0.6,0c-0.4,0-0.8-0.4-0.8-0.8 c-0.3-11.2-0.9-22.5-1.6-33.5c-0.5-8.1-0.9-16.4-1.3-24.6c-0.3-1.4-0.3-2.9-0.3-4.3c0-1.1,0-2.3-0.1-3.3 c-4.4,9.5-9.1,19.1-13.7,28.4c-2.9,5.9-5.8,11.8-8.7,17.8c-0.1,0.3-0.4,0.5-0.8,0.5l0,0h-12c-6,0-12,0-18,0 c-0.3,0-0.6-0.2-0.8-0.5c-3.9-8.2-7.9-16.4-11.8-24.4c-3.5-7.1-7-14.3-10.5-21.6c-0.1,5.4-0.5,10.8-0.8,16 c-0.3,5.7-0.7,11.5-0.8,17.3c-0.7,9.4-1.2,18.9-1.6,29.4c-0.2,1.1-0.3,2-0.5,3C358.3,241.5,357.9,241.8,357.5,241.8z M438.3,172 C438.3,172,438.3,172,438.3,172c0.4,0,0.7,0.2,0.8,0.5c0.8,2,0.8,4.1,0.8,6.2c0,1.4,0,2.8,0.2,4.1c0.4,8.3,0.8,16.6,1.3,24.7 c0.6,10.7,1.3,21.8,1.6,32.7c10-0.1,19.7-6.2,23.8-15c0,0,0,0,0,0c3.6-6.9,2.9-14.8,2.1-22.5c-0.2-2.2-0.4-4.4-0.5-6.6 c-0.6-9.6-1.4-19.2-2.1-28.8c-0.6-7.5-1.1-15-1.7-22.5c-0.5-7.5-3.9-14.7-9.4-19.6c-5.9-5.6-13.5-7.3-19.1-7.6 c-6.1,12.9-12.2,25.9-18.3,38.8c-5.7,12-11.3,24-17,36c-0.1,0.3-0.4,0.5-0.8,0.5l0,0c-0.3,0-0.6-0.2-0.8-0.5 c-2.8-6-5.7-12-8.5-17.9c-8.8-18.6-17.9-37.8-26.7-56.8c-5.4,0.4-9.3,1.4-12.6,3.1c-8.7,4-14.9,12.8-15.9,22.4 c-0.5,5.6-0.9,11.2-1.3,16.8c-0.5,6.5-1,13.1-1.5,19.7c-0.7,10.6-1.5,21.6-2.5,32.8c0,7.5,2.8,14.7,7.8,19.5 c4.6,4.9,11.5,8,18.7,8.2c0.1-0.7,0.2-1.5,0.4-2.2c0.4-10.4,0.8-19.9,1.6-29.3c0.1-5.7,0.5-11.6,0.8-17.3 c0.4-6.4,0.8-13,0.9-19.5c0-0.4,0.3-0.7,0.7-0.8c0.4-0.1,0.8,0.1,0.9,0.5c3.9,8.3,8,16.7,12,24.8c3.8,7.8,7.8,15.9,11.6,23.9 c5.8,0,11.6,0,17.4,0h11.5c2.8-5.8,5.6-11.5,8.4-17.3c4.9-10,9.9-20.3,14.7-30.5C437.6,172.2,437.9,172,438.3,172z M323.4,225.6 C323.4,225.6,323.3,225.6,323.4,225.6c-1.2-0.1-2.4-0.1-3.7-0.1c-5.1-0.1-10.4-0.3-14.8-3.2c-4.7-2.9-7.7-8.4-8-14.4 c0.4-5.1,0.7-10.1,1.1-15.1c1-14.2,2.1-28.9,2.9-43.4c0.4-6.6,3.5-12.2,8.2-15c4.1-2.9,9.3-2.7,13.9-2.5l1.6,0.1 c1.5,0.4,3,0.3,4.4,0.3l0.8,0c0.2,0,0.5,0.1,0.6,0.3c0.2,0.2,0.2,0.4,0.2,0.6c-1,16.9-2.2,34.2-3.4,50.8 c-0.9,12.7-1.8,25.4-2.6,38.1c-0.1,1-0.2,2-0.4,2.9C324.1,225.3,323.8,225.6,323.4,225.6z M319.1,133.3c-3.3,0-6.4,0.4-9.1,2.3 c-4.4,2.6-7.1,7.7-7.5,13.7c-0.9,14.5-1.9,29.2-2.9,43.4c-0.4,5-0.7,10-1.1,15c0.3,5.4,3,10.4,7.2,13c4.1,2.7,9.1,2.8,14,2.9 c1,0,2,0.1,2.9,0.1c0.1-0.7,0.2-1.4,0.3-2c0.8-12.7,1.7-25.4,2.6-38.1c1.2-16.4,2.4-33.2,3.4-49.9c-1.5,0-3,0-4.6-0.4l-1.4-0.1 C321.7,133.4,320.4,133.3,319.1,133.3z M476.2,225.5c-0.4,0-0.8-0.3-0.8-0.8c-0.7-12.9-1.6-26-2.5-38.7 c-0.7-9.1-1.3-18.4-1.9-27.7c-0.3-3.7-0.6-7.4-0.8-11.1c-0.3-4.6-0.6-9.4-1.1-14.1c0-0.2,0.1-0.5,0.2-0.7 c0.2-0.2,0.4-0.3,0.6-0.3c1.9,0.1,4-0.1,6.1-0.3c4.3-0.4,8.8-0.7,12.9,1.3c5.4,2.4,9.3,7.8,9.9,13.8c0.5,6.1,0.9,12.2,1.3,18.2 c0.5,7,1,13.9,1.5,20.9c0.1,3.1,0.4,6.2,0.6,9.3c0.3,4.3,0.7,8.7,0.7,13.1c0.1,5.4-3.1,10.9-8.3,14.2c0,0,0,0,0,0 c-4.7,2.7-10.1,2.8-15.3,2.8C478.2,225.5,477.3,225.5,476.2,225.5C476.3,225.5,476.3,225.5,476.2,225.5z M470.8,133.9 c0.4,4.4,0.7,8.9,1,13.2c0.2,3.7,0.5,7.4,0.8,11.1c0.6,9.2,1.3,18.6,1.9,27.7c0.9,12.4,1.8,25.3,2.5,37.9c0.7,0,1.4,0,2.2,0 c5-0.1,10.1-0.2,14.5-2.6c4.7-2.9,7.6-7.9,7.5-12.7c0-4.3-0.3-8.7-0.7-12.9c-0.2-3-0.5-6.2-0.6-9.3c-0.5-6.9-1-13.9-1.5-20.9 c-0.4-6.1-0.8-12.1-1.3-18.2c-0.6-5.4-4.1-10.3-9-12.4c-3.7-1.8-7.8-1.5-12-1.1C474.4,133.7,472.6,133.9,470.8,133.9z M494.1,221.9L494.1,221.9L494.1,221.9z M295.6,201c-0.1,0-0.1,0-0.2,0c-1-0.2-2.1-0.3-3.2-0.3c-2.1-0.1-4.2-0.2-6.1-1.5 c-2.7-1.5-4.4-4.8-4.3-8.2c0.4-4.8,0.7-9.6,1.1-14.4c0.3-3.9,0.5-7.8,0.8-11.8l0-0.2c0.1-3.2,0.2-6.7,2.8-9.1 c3-3.3,7.8-2.8,11.6-2.4l0.7,0.1c0.4,0,0.8,0.4,0.7,0.9c-0.3,8.3-0.9,16.6-1.5,24.7c-0.4,5.8-0.9,11.9-1.2,17.8 c0,0.9-0.2,1.8-0.3,2.6l-0.2,1.1c0,0.2-0.2,0.4-0.4,0.6C295.9,200.9,295.8,201,295.6,201z M293.9,154.4c-2.3,0-4.6,0.5-6.1,2.2 c-2.2,2-2.3,5.1-2.4,8l0,0.3c-0.3,4-0.6,7.9-0.8,11.8c-0.3,4.8-0.7,9.6-1.1,14.3c-0.1,2.7,1.4,5.4,3.5,6.7 c1.5,1.1,3.4,1.2,5.3,1.2c0.9,0,1.7,0.1,2.6,0.2c0-0.1,0-0.1,0-0.2c0.1-0.8,0.3-1.6,0.3-2.5c0.3-6,0.8-12,1.2-17.8 c0.6-7.8,1.2-15.9,1.5-23.9C296.6,154.6,295.2,154.4,293.9,154.4z M504,200.9c-0.2,0-0.4-0.1-0.5-0.2c-0.2-0.2-0.3-0.4-0.3-0.6 c-0.2-7.2-0.8-14.4-1.4-21.5l-0.1-1.6c-0.1-3.4-0.3-6.7-0.6-10c-0.4-4.1-0.7-8.4-0.6-12.6c0-0.2,0.1-0.4,0.2-0.6l0.7-0.7 c0.2-0.2,0.4-0.3,0.6-0.3c0.7,0,1.3,0,2-0.1c2.7-0.1,5.7-0.3,8.2,1.5c2.3,1.5,3.8,4.4,3.9,7.8c0.2,3,0.4,6,0.6,9 c0.5,6.2,0.9,12.6,1.2,18.9c0.3,2.9-0.6,7.1-4.1,9c-2.1,1.4-4.4,1.5-6.6,1.6c-1.1,0.1-2.1,0.1-3.1,0.3 C504.1,200.9,504.1,200.9,504,200.9z M502.1,154.8c-0.1,4,0.3,8.1,0.6,12.1c0.3,3.3,0.6,6.7,0.6,10l0.1,1.6 c0.6,6.7,1.1,13.7,1.4,20.6c0.8-0.1,1.6-0.1,2.4-0.2c2.1-0.1,4.1-0.2,5.8-1.4c0,0,0.1,0,0.1-0.1c2.8-1.5,3.5-4.9,3.2-7.4 c-0.3-6.3-0.8-12.7-1.2-18.9c-0.2-3-0.4-6-0.6-9c-0.1-2.8-1.3-5.2-3.2-6.5c-2-1.5-4.6-1.4-7.1-1.2c-0.6,0-1.2,0.1-1.7,0.1 L502.1,154.8z M399.9,129c-8.6,0-17.1-4.6-21.5-12c-4.2-6.5-4.9-15.2-2-22.7c3.3-8.5,11.2-14.7,20.3-15.9 c12-1.8,24.4,6.2,27.6,17.8c2.5,8.1,0.6,17.5-5,23.9c-3.8,4.6-9.5,7.7-15.6,8.6C402.5,128.9,401.2,129,399.9,129z M400.1,79.8 c-1.1,0-2.2,0.1-3.2,0.2c-8.5,1.1-16,6.9-19,14.8v0c-2.7,7-2,15.2,1.9,21.3c4.8,8,14.5,12.5,23.7,10.9c5.7-0.8,11-3.7,14.6-8 c5.2-6,7-14.8,4.7-22.4C420,86.8,410.3,79.8,400.1,79.8z M377.1,94.5L377.1,94.5L377.1,94.5z"></path> </g> </g> </g> <g> <g> <path class="st0" d="M19.5,448.2l7.9-14c1.3-2.2,4.6-1.9,5.7-1c0.7,0.3,12.8,9.3,23.9,9.3c6.7,0,11.6-4.2,11.6-10.1 c0-7.1-5.9-12.5-17.4-17c-14.5-5.7-32.7-17-32.7-37.3c0-16.7,13-33.5,38.9-33.5c17.5,0,31,8.9,36.1,12.6c2,1.2,1.7,4.2,1,5.4 l-8.6,13c-1.2,1.9-4.2,3.4-5.7,2.2c-1.5-0.8-13.8-10.1-24.1-10.1c-6.1,0-10.6,4-10.6,8.6c0,6.2,5.1,11,18.4,16.4 c13.2,5.2,34.1,15.5,34.1,38.4c0,17.4-15,34.9-39.8,34.9c-21.9,0-34.1-9.1-37.9-13C18.7,451.2,18.2,450.6,19.5,448.2z"></path> <path class="st0" d="M123.7,371H99.6c-1.9,0-3.2-1.5-3.2-3.2v-18.4c0-1.7,1.3-3.2,3.2-3.2h74.9c1.9,0,3.2,1.5,3.2,3.2v18.4 c0,1.7-1.3,3.2-3.2,3.2h-24.1v90c0,1.7-1.5,3.2-3.2,3.2h-20.2c-1.7,0-3.2-1.5-3.2-3.2V371z"></path> <path class="st0" d="M184.4,349.4c0-1.7,1.4-3.2,3.2-3.2H238c20.2,0,36.8,16.4,36.8,36.4c0,15.5-10.3,28-25,33.9l23.1,42.8 c1.2,2.2,0,4.9-2.9,4.9h-22.4c-1.4,0-2.4-0.8-2.7-1.5L222.5,418h-11.6v43c0,1.7-1.5,3.2-3.2,3.2h-20.1c-1.9,0-3.2-1.5-3.2-3.2 V349.4z M235.8,396.6c6.9,0,12.8-6.4,12.8-13.5s-5.9-12.8-12.8-12.8h-25v26.3H235.8z"></path> <path class="st0" d="M287.2,349.4c0-1.7,1.4-3.2,3.2-3.2h69.8c1.9,0,3.2,1.5,3.2,3.2v18.4c0,1.7-1.4,3.2-3.2,3.2h-46.7v20.9H352 c1.7,0,3.2,1.5,3.2,3.2v18.4c0,1.9-1.5,3.2-3.2,3.2h-38.4v22.8h46.7c1.9,0,3.2,1.5,3.2,3.2V461c0,1.7-1.4,3.2-3.2,3.2h-69.8 c-1.9,0-3.2-1.5-3.2-3.2V349.4z"></path> <path class="st0" d="M375.7,347.6c0-1.7,1.5-3,3.2-3h4.2l67.3,64.7h0.2v-59.8c0-1.7,1.3-3.2,3.2-3.2H474c1.7,0,3.2,1.5,3.2,3.2 v113.5c0,1.7-1.5,3-3.2,3h-2.7c-0.5,0-1.9-0.5-2.2-0.8l-66.6-66.9h-0.2V461c0,1.7-1.3,3.2-3.2,3.2h-20.1c-1.7,0-3.2-1.5-3.2-3.2 L375.7,347.6z"></path> <path class="st0" d="M548.2,344.7c14.2,0,29.7,5.9,41.1,15.8c1.5,1.2,1.7,3.2,0.3,4.6l-13.3,14.2c-1.3,1.2-3.2,1.2-4.5,0.2 c-6.4-5.9-13.8-8.1-22.1-8.1c-18.4,0-33.2,15.5-33.2,34.1c0,18.4,15,33.5,33.4,33.5c4.9,0,9.9-0.7,15-2.7v-9.8h-10.6 c-1.9,0-3.2-1.4-3.2-3v-16.7c0-1.9,1.4-3.2,3.2-3.2h33.9c1.7,0,3,1.5,3,3.2l0.2,45.3c0,0.8-0.7,2.2-1.4,2.7c0,0-17.4,11-41.8,11 c-33.5,0-60.5-26.6-60.5-60.4C487.7,371.7,514.6,344.7,548.2,344.7z"></path> <path class="st0" d="M619.5,371h-24.1c-1.9,0-3.2-1.5-3.2-3.2v-18.4c0-1.7,1.3-3.2,3.2-3.2h74.9c1.9,0,3.2,1.5,3.2,3.2v18.4 c0,1.7-1.3,3.2-3.2,3.2h-24.1v90c0,1.7-1.5,3.2-3.2,3.2h-20.2c-1.7,0-3.2-1.5-3.2-3.2V371z"></path> <path class="st0" d="M680.2,349.4c0-1.7,1.5-3.2,3.2-3.2h20.1c1.9,0,3.2,1.5,3.2,3.2v42.5h48.2v-42.5c0-1.7,1.3-3.2,3.2-3.2h20.1 c1.7,0,3.2,1.5,3.2,3.2V461c0,1.7-1.5,3.2-3.2,3.2h-20.1c-1.9,0-3.2-1.5-3.2-3.2v-44.3h-48.2V461c0,1.7-1.3,3.2-3.2,3.2h-20.1 c-1.7,0-3.2-1.5-3.2-3.2V349.4z"></path> </g> <g> <path class="st0" d="M35.3,491.9c0.3-1.2,1.5-2.2,2.6-2.2h2.3c0.9,0,2.2,0.7,2.5,1.6l30.6,74.7h0.6l30.4-74.7 c0.3-0.9,1.5-1.6,2.5-1.6h2.3c1.2,0,2.3,1,2.6,2.2l18,98.2c0.4,2-0.6,3.4-2.6,3.4h-9.5c-1.3,0-2.5-1-2.8-2l-10.8-65.3 c-0.1,0-0.4,0-0.4,0l-26.3,67.2c-0.3,0.9-1.2,1.6-2.5,1.6h-2.6c-1.2,0-2.2-0.7-2.5-1.6l-26.5-67.2c-0.1,0-0.4,0-0.6,0l-10.5,65.3 c-0.1,1-1.5,2-2.6,2H20c-2,0-3.1-1.3-2.8-3.4L35.3,491.9z"></path> <path class="st0" d="M203.9,494c0-1.5,1.2-2.8,2.8-2.8h58.5c1.6,0,2.8,1.3,2.8,2.8v8.2c0,1.5-1.2,2.8-2.8,2.8H219v29.8h39 c1.5,0,2.8,1.3,2.8,2.8v8.2c0,1.6-1.3,2.8-2.8,2.8h-39v31.4h46.2c1.6,0,2.8,1.3,2.8,2.8v8c0,1.5-1.2,2.8-2.8,2.8h-58.5 c-1.6,0-2.8-1.3-2.8-2.8V494z"></path> <path class="st0" d="M356.7,504.9h-23.8c-1.6,0-2.8-1.3-2.8-2.8V494c0-1.5,1.2-2.8,2.8-2.8h62.9c1.6,0,2.8,1.3,2.8,2.8v8.2 c0,1.5-1.2,2.8-2.8,2.8h-23.8v85.8c0,1.5-1.3,2.8-2.8,2.8h-9.6c-1.5,0-2.8-1.3-2.8-2.8V504.9z"></path> <path class="st0" d="M466.9,494c0-1.5,1.2-2.8,2.8-2.8h39.8c17.5,0,31.9,13.9,31.9,31.3c0,13.4-8.9,24.6-21.6,29.7l20,37.1 c1,1.9,0,4.2-2.5,4.2h-11.4c-1.2,0-2-0.7-2.3-1.3L504,553.5H482v37.3c0,1.5-1.3,2.8-2.8,2.8h-9.5c-1.6,0-2.8-1.3-2.8-2.8V494z M508.3,540.9c9.5,0,17.8-8,17.8-18.1c0-9.5-8.3-17.4-17.8-17.4h-26v35.5H508.3z"></path> <path class="st0" d="M616.7,494c0-1.5,1.3-2.8,2.8-2.8h9.6c1.5,0,2.8,1.3,2.8,2.8v96.8c0,1.5-1.3,2.8-2.8,2.8h-9.6 c-1.5,0-2.8-1.3-2.8-2.8V494z"></path> <path class="st0" d="M734,541.1L705,495.3c-1.2-1.9,0-4.1,2.5-4.1h12.4c1,0,2,0.6,2.5,1.3l20.6,34.9h0.1l20.9-34.9 c0.3-0.6,1.2-1.3,2.3-1.3h12.4c2.5,0,3.7,2.2,2.5,4.1l-28.9,45.8l30,48.4c1.2,2,0,4.1-2.5,4.1h-11.3c-1.2,0-2.2-0.7-2.5-1.3 l-22.9-37.4h-0.3l-22.7,37.4c-0.4,0.6-1.3,1.3-2.5,1.3h-11.3c-2.6,0-3.8-2.2-2.6-4.1L734,541.1z"></path> </g> </g> </g> </svg> 