<?xml version="1.0" encoding="utf-8"?>
<!-- Generator: Adobe Illustrator 22.1.0, SVG Export Plug-In . SVG Version: 6.00 Build 0)  -->
<svg version="1.1" xmlns="http://www.w3.org/2000/svg" xmlns:xlink="http://www.w3.org/1999/xlink" x="0px" y="0px"
	 viewBox="0 0 144 128.7" style="enable-background:new 0 0 144 128.7;" xml:space="preserve">
<style type="text/css">
	.st0{display:none;}
	.st1{display:inline;}
	.st2{fill:#FFFFFF;}
	.st3{display:none;fill:#AE1F23;}
</style>
<g id="Layer_1" class="st0">
	<g class="st1">
		<path class="st2" d="M84.9,29.8c5.8,3.6,9.8,9.8,10.6,16.9c2.4,1.1,5,1.7,7.7,1.7c10.1,0,18.3-8.2,18.3-18.3
			c0-10.1-8.2-18.3-18.3-18.3C93.2,11.8,85.1,19.8,84.9,29.8z M72.9,67.4c10.1,0,18.3-8.2,18.3-18.3S83,30.7,72.9,30.7
			S54.6,38.9,54.6,49S62.8,67.4,72.9,67.4z M80.7,68.6H65.1c-12.9,0-23.5,10.5-23.5,23.5v19l0,0.3l1.3,0.4
			c12.4,3.9,23.1,5.1,31.9,5.1c17.2,0,27.2-4.9,27.9-5.2l1.2-0.6h0.1v-19C104.2,79.1,93.6,68.6,80.7,68.6z M111,49.7H95.6
			c-0.2,6.2-2.8,11.7-7,15.7c11.5,3.4,19.9,14.1,19.9,26.7V98c15.2-0.6,24-4.9,24.6-5.2l1.2-0.6h0.1v-19
			C134.5,60.2,124,49.7,111,49.7z M40.8,48.4c3.6,0,6.9-1,9.7-2.8c0.9-5.9,4-11,8.5-14.5c0-0.3,0.1-0.7,0.1-1
			c0-10.1-8.2-18.3-18.3-18.3c-10.1,0-18.3,8.2-18.3,18.3C22.4,40.2,30.6,48.4,40.8,48.4z M57.2,65.4c-4.1-4-6.8-9.5-7-15.6
			c-0.6,0-1.1-0.1-1.7-0.1H33C20,49.7,9.5,60.2,9.5,73.2v19l0,0.3l1.3,0.4c9.9,3.1,18.8,4.5,26.4,5v-5.7
			C37.3,79.5,45.7,68.8,57.2,65.4z"/>
	</g>
</g>
<g id="Layer_2">
	<g>
		<circle class="st3" cx="52.4" cy="53.5" r="19.6"/>
		<g>
			<rect x="25.1" y="31.2" class="st2" width="72.8" height="87.3"/>
			<polygon class="st2" points="118.9,10.2 46.1,10.2 46.1,25.1 104,25.1 104,97.5 118.9,97.5 			"/>
		</g>
	</g>
</g>
</svg>
