<svg xmlns="http://www.w3.org/2000/svg" viewBox="0 0 31.2 21.02"><defs><style>.cls-1{fill:#fff;}</style></defs><title>wiegth</title><g id="Layer_2" data-name="Layer 2"><g id="Layer_1-2" data-name="Layer 1"><path class="cls-1" d="M30.84,3.34h-.17v-.9a.37.37,0,0,0-.37-.37h-1V1.74A.38.38,0,0,0,29,1.37H27.62a.38.38,0,0,0-.37.37v1.6H18.63c0-.1,0-.2,0-.3a3,3,0,0,0-6.08,0c0,.1,0,.2,0,.3H4V1.74a.37.37,0,0,0-.37-.37H2.24a.37.37,0,0,0-.36.37v.33H.9a.38.38,0,0,0-.37.37v.9H.37A.37.37,0,0,0,0,3.71a.36.36,0,0,0,.37.36H.53V5a.37.37,0,0,0,.37.36h1v.34a.37.37,0,0,0,.36.37H3.58A.37.37,0,0,0,4,5.68V4.07h2.3a1.14,1.14,0,0,0-.09.26A1.35,1.35,0,0,0,6.32,5.4l2.2,3.43a1.65,1.65,0,0,0,2.29.5l1-.64v4.84l-2.21.29a.37.37,0,0,0-.32.33l-.48,5.11a1.67,1.67,0,0,0,.37,1.21,1.54,1.54,0,0,0,1,.54h.13a1.57,1.57,0,0,0,1.55-1.35l.43-3.14,3.27-.41,3.28.41.42,3.1A1.58,1.58,0,0,0,20.65,21a1.55,1.55,0,0,0,1.28-.42,1.51,1.51,0,0,0,.47-1.27l-.49-5.16a.35.35,0,0,0-.31-.33l-2.22-.29V8.69l1,.64a1.65,1.65,0,0,0,2.29-.5l2.2-3.43a1.39,1.39,0,0,0,.17-1.07,2,2,0,0,0-.1-.26h2.3V5.68a.38.38,0,0,0,.37.37H29a.38.38,0,0,0,.37-.37V5.34h1A.36.36,0,0,0,30.67,5V4.07h.17a.36.36,0,0,0,.36-.36A.37.37,0,0,0,30.84,3.34ZM1.27,4.61V2.81h.61v1.8Zm2,.7H2.61V2.1h.61ZM15.6.73A2.31,2.31,0,1,1,13.29,3,2.32,2.32,0,0,1,15.6.73ZM12.75,4.07a3,3,0,0,0,.88,1.28h-.76a2.71,2.71,0,0,0-1.46.43l-1.18.75L8.65,4.07ZM24.26,5l-2.2,3.44a.92.92,0,0,1-1.27.28l-1.57-1a.37.37,0,0,0-.38,0,.38.38,0,0,0-.19.32v5.83a.37.37,0,0,0,.32.36l2.24.3.46,4.87a.77.77,0,0,1-.25.67.82.82,0,0,1-.68.23.84.84,0,0,1-.71-.74l-.47-3.39a.36.36,0,0,0-.31-.32l-3.6-.44h-.09l-3.6.44a.36.36,0,0,0-.32.32l-.47,3.42a.83.83,0,0,1-.89.71A.81.81,0,0,1,9.74,20a.87.87,0,0,1-.2-.66L10,14.51l2.24-.3a.36.36,0,0,0,.32-.36V8a.36.36,0,0,0-.19-.32.35.35,0,0,0-.37,0l-1.57,1a.93.93,0,0,1-1.28-.28L6.94,5a.62.62,0,0,1-.08-.48.61.61,0,0,1,.32-.38.63.63,0,0,1,.8.24L9.81,7.24A.35.35,0,0,0,10,7.4a.37.37,0,0,0,.27-.05l1.49-1a2,2,0,0,1,1.07-.31h5.46a2,2,0,0,1,1.07.31l1.49,1a.39.39,0,0,0,.28.05.41.41,0,0,0,.23-.16l1.82-2.86A.65.65,0,0,1,24,4.14a.62.62,0,0,1,.31.38A.58.58,0,0,1,24.26,5ZM21,6.53l-1.19-.75a2.68,2.68,0,0,0-1.46-.43h-.75a3.1,3.1,0,0,0,.88-1.28h4.09ZM28.6,5.31H28V2.1h.61V5.31Zm1.34-.7h-.61V2.81h.61Z"/></g></g></svg>